<svg xmlns="http://www.w3.org/2000/svg" xmlns:xlink="http://www.w3.org/1999/xlink" viewBox="0 0 87.24 87.24"><defs><style>.cls-1{fill:#ffa099;}.cls-2{fill:#d9d9d9;}.cls-3{fill:#acacac;}.cls-4{fill:#9e9fa3;}.cls-5{fill:#f0f0f0;}.cls-6{fill:url(#未命名漸層_6);}.cls-7{fill:url(#未命名漸層_6-2);}.cls-8{fill:#54ec87;}.cls-9{fill:#fff;}.cls-10{fill:#edeef2;}.cls-11{fill:#f9fafe;}.cls-12{fill:#1f1f1f;}</style><linearGradient id="未命名漸層_6" x1="23.62" y1="52.1" x2="29.17" y2="60.06" gradientUnits="userSpaceOnUse"><stop offset="0" stop-color="#fff"/><stop offset="1" stop-color="#fff" stop-opacity="0"/></linearGradient><linearGradient id="未命名漸層_6-2" x1="-11262.78" y1="52.1" x2="-11257.23" y2="60.06" gradientTransform="matrix(-1, 0, 0, 1, -11197.02, 0)" xlink:href="#未命名漸層_6"/></defs><g id="圖層_2" data-name="圖層 2"><g id="圖層_1-2" data-name="圖層 1"><circle class="cls-1" cx="43.62" cy="43.62" r="43.62"/><rect class="cls-2" x="21.73" y="31.4" width="45.78" height="15.86" rx="7.81"/><path class="cls-3" d="M26.85,34.13a12.86,12.86,0,0,1,7.08-1.61c4.56.11,7.12.1,8.91,3.33s-.7,6.87-4.83,7.67S27.17,46.1,25.13,42.07,26.85,34.13,26.85,34.13Z"/><path class="cls-3" d="M62.13,34.13a12.89,12.89,0,0,0-7.08-1.61c-4.56.11-7.13.1-8.91,3.33s.7,6.87,4.83,7.67S61.8,46.1,63.84,42.07,62.13,34.13,62.13,34.13Z"/><path class="cls-4" d="M53.87,47.26H35.1a.82.82,0,0,1-.82-.82V45.08H54.69v1.36A.82.82,0,0,1,53.87,47.26Z"/><path class="cls-5" d="M56.43,70.23H32.81a11,11,0,0,1-11-11v-12H67.4v12A11,11,0,0,1,56.43,70.23Z"/><path class="cls-6" d="M24.58,47.26h2s-.11,10.05,0,11,.16,4.72,1.93,6.27l-1.4,1.08a7.74,7.74,0,0,1-2.79-6.17C24.17,55.05,24.58,47.26,24.58,47.26Z"/><path class="cls-7" d="M64.79,47.26H62.85s.1,10.05,0,11-.16,4.72-1.93,6.27l1.39,1.08A7.74,7.74,0,0,0,65.1,59.4C65.21,55.05,64.79,47.26,64.79,47.26Z"/><circle class="cls-8" cx="44.62" cy="53.01" r="1.23"/><path class="cls-9" d="M53.69,48.25H35.55a1,1,0,0,1-1-1H54.68A1,1,0,0,1,53.69,48.25Z"/><path class="cls-10" d="M33.27,39.13h0a2,2,0,0,1-2.72-1L25.13,26.85a2.79,2.79,0,0,1,1.32-3.72h0a1.3,1.3,0,0,1,1.73.61L34.24,36.4A2.06,2.06,0,0,1,33.27,39.13Z"/><ellipse class="cls-11" cx="31.03" cy="22.94" rx="7.24" ry="6.76"/><rect class="cls-12" x="26.58" y="20.95" width="6.6" height="2.52" rx="1.26"/><path class="cls-2" d="M36.7,18.51s4-1.26,5.82,1.83l-.38,6.34A5.85,5.85,0,0,1,36.26,28Z"/><path class="cls-10" d="M55.61,39.13h0a2,2,0,0,0,2.72-1l5.42-11.32a2.79,2.79,0,0,0-1.32-3.72h0a1.29,1.29,0,0,0-1.73.61L54.64,36.4A2.06,2.06,0,0,0,55.61,39.13Z"/><ellipse class="cls-11" cx="57.85" cy="22.94" rx="7.24" ry="6.76"/><rect class="cls-12" x="55.71" y="20.95" width="6.6" height="2.52" rx="1.26"/><path class="cls-2" d="M52.18,18.51s-4-1.26-5.82,1.83l.37,6.34A5.87,5.87,0,0,0,52.62,28Z"/></g></g></svg>