<svg xmlns="http://www.w3.org/2000/svg" viewBox="0 0 55.89 27.89"><defs><style>.cls-1,.cls-4{fill:#fff;}.cls-1{stroke:#3cbaad;}.cls-1,.cls-3{stroke-miterlimit:10;}.cls-2{fill:#3cbaad;}.cls-3{fill:none;stroke:#fff;stroke-dasharray:3;}</style></defs><g id="圖層_2" data-name="圖層 2"><g id="圖層_1-2" data-name="圖層 1"><rect class="cls-1" x="0.5" y="0.5" width="31.31" height="26.89" rx="4.08"/><rect class="cls-2" x="31.81" y="0.5" width="24.08" height="26.89" rx="3.35"/><line class="cls-3" x1="32.01" y1="5.32" x2="32.01" y2="21.77"/><path class="cls-4" d="M40.6,12.43a3.6,3.6,0,0,0,1,.1c.52,0,1.9,0,2.5,0a2.47,2.47,0,0,0-.31.8H41.64a2.39,2.39,0,0,1-2.08-.68,3.92,3.92,0,0,1-.23.81,3.64,3.64,0,0,0-.65-.34A6.19,6.19,0,0,0,39,10.7l.7,0c0,.26,0,.51,0,.75a1.72,1.72,0,0,0,.22.45V10.48h-1V9.77h.91V9.35H39V8.66h.77V8.15h.75v.51h.74v.69h-.74v.42h.83v.07A1.35,1.35,0,0,0,41.91,9h-.49V8.33H43.9V8.6a3.41,3.41,0,0,1-.22,1.48.59.59,0,0,1-.41.21,3.71,3.71,0,0,1-.63,0,1.77,1.77,0,0,0-.19-.68,1.93,1.93,0,0,1-.67.77,3.06,3.06,0,0,0-.44-.35v.42H40.6V11h.66v.7H40.6Zm.94-1.95h2.23v1.79H41.54Zm.75,1.14H43v-.5h-.67ZM42.67,9a2.83,2.83,0,0,1-.22.64,3.36,3.36,0,0,0,.4,0A.18.18,0,0,0,43,9.6a1.3,1.3,0,0,0,.1-.6Z"/><path class="cls-4" d="M49.53,9.32H48l.46.09-.29.52H49.3v2.81c0,.33-.08.49-.31.58a2.58,2.58,0,0,1-1,.1,2.1,2.1,0,0,0-.22-.59,4.65,4.65,0,0,0,.63,0c.09,0,.13,0,.13-.11V10.57h-.72v0c0,.09,0,.15.1.15h.14a1.76,1.76,0,0,0,.34,0,4.57,4.57,0,0,0,0,.52,1.07,1.07,0,0,1-.37,0h-.37c-.52,0-.6-.25-.6-.69v0h-.26a1,1,0,0,1-.62.78h1.86v1.43H46.53V13h-.67V11.47H45.8a1.62,1.62,0,0,0-.3-.47v2.42h-.77V9.93h1.12c-.05-.16-.14-.35-.2-.5L46,9.32H44.5V8.64h2.16c0-.12-.07-.25-.11-.36l.79-.19c.06.17.13.38.18.55h2Zm-4,1.61c.42-.07.58-.18.66-.36H45.5Zm1.89-1a5.65,5.65,0,0,0,.22-.61h-1.2c.09.17.18.37.24.5l-.32.11Zm-.86,2v.33h.94V11.9Z"/><path class="cls-4" d="M41.15,16.65H39.6l.46.08a6,6,0,0,1-.3.52h1.16v2.82c0,.33-.07.48-.3.58a2.84,2.84,0,0,1-1,.1,2.47,2.47,0,0,0-.22-.59h.63c.09,0,.12,0,.12-.11V17.9h-.72v0c0,.1,0,.15.1.15h.15a2,2,0,0,0,.34,0,4.73,4.73,0,0,0,0,.52,1.31,1.31,0,0,1-.37,0h-.36c-.52,0-.61-.24-.61-.68v0h-.26a.93.93,0,0,1-.62.78h1.87v1.43H38.15v.2h-.67V18.8h-.06a1.81,1.81,0,0,0-.29-.47v2.42h-.77V17.25h1.12c-.06-.15-.14-.34-.21-.49l.36-.11H36.12V16h2.16c0-.12-.07-.25-.1-.36l.78-.19a5.05,5.05,0,0,1,.18.55h2Zm-4,1.61c.42-.07.58-.18.65-.36h-.65Zm1.88-1a3.63,3.63,0,0,0,.22-.6H38a4.43,4.43,0,0,1,.24.5l-.31.1Zm-.86,2v.33h.94v-.33Z"/><path class="cls-4" d="M41.77,18.2H44v2.56h-.81v-.25h-.64v.27h-.77Zm4.17-.39H42.52V15.69h3.42ZM42.54,19v.75h.64V19Zm2.57-2.52H43.3V17h1.81Zm1.55,1.74v2.56h-.82v-.25h-.68v.27h-.77V18.2Zm-.82,1.53V19h-.68v.75Z"/><path class="cls-4" d="M50.1,18.2v.66l.2-.3c.54.2,1.44.54,1.88.75l-.46.72c-.35-.19-1.07-.51-1.62-.74v1.48h-.87V18.2h-2v-.8h1.95V15.47h.87v.59h1.8v.78h-1.8v.56h2.31v.8Z"/><path class="cls-2" d="M10.6,13.12a2.16,2.16,0,0,0-1.37-.53c-.5,0-.84.15-.84.53,0,.81,2.91.48,2.91,2.33a1.75,1.75,0,0,1-1.67,1.73v1H8.74v-1a3.14,3.14,0,0,1-1.85-.74l.59-.92A2.29,2.29,0,0,0,9,16.13c.69,0,1-.19,1-.56,0-.81-2.91-.52-2.91-2.36a1.67,1.67,0,0,1,1.64-1.69v-1h.89v1a3,3,0,0,1,1.64.79Z"/><path class="cls-2" d="M12.58,16.13h1.2V12.91h-1v-.84a3.66,3.66,0,0,0,1.4-.51h1v4.57h1v1.1H12.58Z"/><path class="cls-2" d="M16.93,14.37c0-1.95.8-2.91,2-2.91s2,1,2,2.91-.82,3-2,3S16.93,16.32,16.93,14.37Zm2.73,0c0-1.55-.33-1.87-.73-1.87s-.72.32-.72,1.87.32,1.92.72,1.92S19.66,15.92,19.66,14.37Z"/><path class="cls-2" d="M21.56,14.37c0-1.95.81-2.91,2-2.91s2,1,2,2.91-.81,3-2,3S21.56,16.32,21.56,14.37Zm2.73,0c0-1.55-.32-1.87-.73-1.87s-.72.32-.72,1.87.32,1.92.72,1.92S24.29,15.92,24.29,14.37Z"/></g></g></svg>