<svg xmlns="http://www.w3.org/2000/svg" viewBox="0 0 61.52 49.55"><defs><style>.cls-1{fill:#ffc517;}.cls-2{fill:none;stroke:#fff;stroke-miterlimit:10;stroke-width:3px;}.cls-3{fill:#fff;}.cls-4{fill:#32323f;opacity:0.25;}.cls-5{fill:#ffe369;}.cls-5,.cls-7{fill-rule:evenodd;}.cls-6{fill:#3cbaad;}.cls-7{fill:#ffa099;}</style></defs><g id="圖層_2" data-name="圖層 2"><g id="圖層_1-2" data-name="圖層 1"><path class="cls-1" d="M56.55,13.74a3.87,3.87,0,0,1,3.27-4.2Q59.36,4.79,58.89,0c-6,1.57-16.84,3.42-29.29,4.69S6.19,6.24,0,5.75l.93,9.54H1a3.93,3.93,0,0,1,4.07,3.56,3.51,3.51,0,0,1-3.34,3.93H1.65c.33,3.39.65,6.79,1,10.2a367.35,367.35,0,0,0,58.89-6c-.33-3.33-.65-6.67-1-10A3.54,3.54,0,0,1,56.55,13.74Z" transform="translate(0 0)"/><path class="cls-2" d="M11.3,7.4l.48,5.12" transform="translate(0 0)"/><path class="cls-2" d="M12.89,24.27l.48,5.14" transform="translate(0 0)"/><path class="cls-3" d="M15.63,9.62l1.22-.11q.66,7.1,1.33,14.2L17,23.8Q16.29,16.7,15.63,9.62Z" transform="translate(0 0)"/><path class="cls-3" d="M21.84,23.42q-.66-7.12-1.33-14.25l-1.22.12-1.22.11q.66,7.1,1.33,14.22l1.22-.1Z" transform="translate(0 0)"/><path class="cls-3" d="M32.84,22.38Q32.18,15.24,31.5,8.1l-1.22.12-1.22.12q.68,7.15,1.34,14.3l1.22-.13Z" transform="translate(0 0)"/><path class="cls-3" d="M43.23,21.18Q42.56,14.1,41.89,7l-1.23.13-1.22.13q.68,7.13,1.34,14.22L42,21.33Z" transform="translate(0 0)"/><path class="cls-3" d="M46.89,20.71q-.68-7-1.34-14.11l-1.22.13-1.22.13Q43.77,14,44.45,21l1.22-.16Z" transform="translate(0 0)"/><path class="cls-3" d="M21.73,9.06,23,8.94c.45,4.76.89,9.51,1.34,14.28l-1.22.1Q22.4,16.18,21.73,9.06Z" transform="translate(0 0)"/><path class="cls-3" d="M32.73,8,34,7.84q.66,7.14,1.34,14.28l-1.23.13Q33.4,15.11,32.73,8Z" transform="translate(0 0)"/><path class="cls-3" d="M34.56,7.78l1.22-.13q.67,7.14,1.34,14.26l-1.22.14Q35.23,14.93,34.56,7.78Z" transform="translate(0 0)"/><path class="cls-3" d="M37,7.52l1.22-.13q.68,7.13,1.34,14.24l-1.22.14Q37.67,14.66,37,7.52Z" transform="translate(0 0)"/><path class="cls-3" d="M28,22.88l1.23-.12q-.67-7.16-1.34-14.29l-1.22.12-1.22.12-1.22.12q.66,7.13,1.33,14.28L26.73,23Z" transform="translate(0 0)"/><path class="cls-3" d="M50.56,20.22l1.22-.17q-.68-7-1.35-14l-1.22.13L48,6.33l-1.22.13q.67,7.06,1.34,14.09l1.22-.16Z" transform="translate(0 0)"/><path class="cls-3" d="M51,6l1.23-.14q.66,7,1.34,14L52.39,20Q51.72,13,51,6Z" transform="translate(0 0)"/><path class="cls-3" d="M17.1,25.31l1.22-.09c.05.56.1,1.12.16,1.67L17.26,27C17.2,26.42,17.15,25.86,17.1,25.31Z" transform="translate(0 0)"/><path class="cls-3" d="M19.54,25.13,22,24.94l.15,1.67-2.44.19C19.65,26.25,19.59,25.69,19.54,25.13Z" transform="translate(0 0)"/><path class="cls-3" d="M23.21,24.83l1.22-.1c.05.56.1,1.12.16,1.68l-1.23.1Z" transform="translate(0 0)"/><path class="cls-3" d="M25.65,24.62l3.67-.35c.05.56.1,1.12.16,1.68l-3.67.35Z" transform="translate(0 0)"/><path class="cls-3" d="M30.54,24.15,33,23.9c.06.56.11,1.12.16,1.68l-2.44.25C30.64,25.27,30.59,24.71,30.54,24.15Z" transform="translate(0 0)"/><path class="cls-3" d="M34.21,23.76l1.22-.13c0,.56.1,1.12.16,1.68l-1.23.13Z" transform="translate(0 0)"/><path class="cls-3" d="M36,23.56l3.66-.43c.06.56.11,1.12.16,1.67l-3.66.44C36.14,24.68,36.09,24.12,36,23.56Z" transform="translate(0 0)"/><path class="cls-3" d="M40.93,23l2.44-.3c.05.55.11,1.11.16,1.66l-2.45.31Z" transform="translate(0 0)"/><path class="cls-3" d="M44.59,22.52,47,22.2c.06.55.11,1.11.16,1.66l-2.44.32Z" transform="translate(0 0)"/><path class="cls-3" d="M48.26,22l5.49-.77c0,.54.1,1.09.16,1.63-1.83.27-3.67.54-5.5.79Z" transform="translate(0 0)"/><path class="cls-4" d="M19,45.27a28.63,28.63,0,0,1-5.38.29,27.22,27.22,0,0,1-5.22-.25,28.8,28.8,0,0,1,5.22-.24A32.93,32.93,0,0,1,19,45.27Z" transform="translate(0 0)"/><path class="cls-4" d="M53,47a15.45,15.45,0,0,1-3.86.27A16.15,16.15,0,0,1,45.43,47a15.2,15.2,0,0,1,3.74-.23A19.46,19.46,0,0,1,53,47Z" transform="translate(0 0)"/><path class="cls-4" d="M39.32,49.25a47.79,47.79,0,0,1-7.15.3,47.88,47.88,0,0,1-6.93-.25A47,47,0,0,1,32.17,49,56.78,56.78,0,0,1,39.32,49.25Z" transform="translate(0 0)"/><path class="cls-5" d="M7,25c.5,1.43,4.15,10.5,4.27,11.31s-1,6.71-1.15,7.44c-.28,1.44.49,1.15,1.67,1.37,1.58.28,1.84.67,2.14-1.13s.83-6.23,1.6-7c1.35-1.39,6.85-8.37,7.35-8.85.69-.65.41-1-1-1.27-2.1-.43-2.13-.94-3.55,1S14,33.78,13.92,33.72c-.49-.93-2.4-8.11-2.87-8.53A4.47,4.47,0,0,0,9,24.45C8.18,24.32,6.51,23.74,7,25Z" transform="translate(0 0)"/><path class="cls-5" d="M19,38.8a1.14,1.14,0,0,0-.18-.84,1.12,1.12,0,0,0-.72-.46L8.4,35.77a1.07,1.07,0,0,0-.83.18,1.14,1.14,0,0,0-.47.72h0a1.11,1.11,0,0,0,.19.83A1.09,1.09,0,0,0,8,38l9.7,1.74a1.11,1.11,0,0,0,.83-.18A1.12,1.12,0,0,0,19,38.8Z" transform="translate(0 0)"/><path class="cls-5" d="M18.46,42.27a1.11,1.11,0,0,0-.19-.83,1.06,1.06,0,0,0-.72-.46L7.86,39.24a1.11,1.11,0,0,0-1.3.9h0a1.14,1.14,0,0,0,.18.84,1.12,1.12,0,0,0,.72.46l9.7,1.73A1.1,1.1,0,0,0,18,43a1.17,1.17,0,0,0,.46-.72Z" transform="translate(0 0)"/><path class="cls-6" d="M54.72,39.94a4.05,4.05,0,0,1-.34,2.37,4.27,4.27,0,0,1-1.69,1.85,7.25,7.25,0,0,1-2.91,1,6.75,6.75,0,0,1-3.52-.31,4.6,4.6,0,0,1-1.76-1.29,3.44,3.44,0,0,1-.85-1.75,1.25,1.25,0,0,1,1.1-1.42,1.11,1.11,0,0,1,.8.18,2.27,2.27,0,0,1,.64.78,6.11,6.11,0,0,0,.73,1,2.39,2.39,0,0,0,1,.62,3.21,3.21,0,0,0,1.52.09,3.4,3.4,0,0,0,2-.87A1.79,1.79,0,0,0,52,40.64a1.6,1.6,0,0,0-.58-1.08,2.8,2.8,0,0,0-1.19-.51c-.47-.09-1.09-.17-1.87-.24a13,13,0,0,1-2.63-.47,4.09,4.09,0,0,1-1.79-1.07A3.31,3.31,0,0,1,43,35.33a3.48,3.48,0,0,1,.35-2.14A3.93,3.93,0,0,1,45,31.56a7.55,7.55,0,0,1,2.74-.87,6.86,6.86,0,0,1,2.27,0,4.86,4.86,0,0,1,1.68.64,3.61,3.61,0,0,1,1.06,1,2.63,2.63,0,0,1,.44,1.1,1.36,1.36,0,0,1-.23,1,1.16,1.16,0,0,1-.84.53,1.1,1.1,0,0,1-.77-.14A3.3,3.3,0,0,1,50.7,34a3.73,3.73,0,0,0-1.09-1.11,2.74,2.74,0,0,0-1.78-.2,2.93,2.93,0,0,0-1.7.73,1.42,1.42,0,0,0-.51,1.25,1.18,1.18,0,0,0,.33.69,2,2,0,0,0,.7.44,3.92,3.92,0,0,0,.86.23l1.4.18a21.07,21.07,0,0,1,2.23.31,6.58,6.58,0,0,1,1.74.59,3.2,3.2,0,0,1,1.22,1.06A3.9,3.9,0,0,1,54.72,39.94Z" transform="translate(0 0)"/><path class="cls-6" d="M50.64,46.76l-1.5.21a.47.47,0,0,1-.53-.41l-2.4-17.34a.47.47,0,0,1,.41-.54l1.49-.21a.48.48,0,0,1,.54.41l2.4,17.34A.49.49,0,0,1,50.64,46.76Z" transform="translate(0 0)"/><path class="cls-7" d="M34.23,28.52C30.73,29.16,21,33.65,25.17,43c4,8.84,13.34,6.07,15.4,4.77s2.64-1.37,1.36-2.78-.8-1.43-2.36-.46-8.21,3.6-10.89-3.12c-2-5,2.18-8.31,4-8.94s2.35-.43,2.4-2.35C35.12,29,34.85,28.41,34.23,28.52Z" transform="translate(0 0)"/><path class="cls-7" d="M22.05,40.16s11.59-4.95,12.39-5.28,1.19-.24,1.42,1.09S36,37.45,34.6,38s-9.83,4.22-10.55,4.56-1.13.62-1.77-1S21.72,40.28,22.05,40.16Z" transform="translate(0 0)"/><path class="cls-7" d="M23.52,44.22S34.34,39.6,35.1,39.29s1.11-.21,1.36,1.11.2,1.47-1.15,2-9.18,4-9.85,4.27-1.06.58-1.7-1S23.2,44.34,23.52,44.22Z" transform="translate(0 0)"/></g></g></svg>