<svg xmlns="http://www.w3.org/2000/svg" viewBox="0 0 139.04 139.04"><defs><style>.cls-1,.cls-2{fill:#fff;}.cls-2{stroke:#3cbaad;}.cls-2,.cls-4{stroke-miterlimit:10;}.cls-3{fill:#3cbaad;}.cls-4{fill:none;stroke:#fff;stroke-dasharray:3;}</style></defs><g id="圖層_2" data-name="圖層 2"><g id="圖層_1-2" data-name="圖層 1"><circle class="cls-1" cx="69.52" cy="69.52" r="69.52"/><rect class="cls-2" x="5.83" y="41.19" width="72" height="61.84" rx="9.38"/><rect class="cls-3" x="77.83" y="41.19" width="55.38" height="61.84" rx="7.7"/><line class="cls-4" x1="78.29" y1="52.27" x2="78.29" y2="90.11"/><path class="cls-1" d="M98.05,68.63a8.57,8.57,0,0,0,2.4.23c1.18,0,4.35,0,5.73-.06a6.48,6.48,0,0,0-.71,1.85h-5c-2.24,0-3.77-.27-4.8-1.57A8.15,8.15,0,0,1,95.12,71a10,10,0,0,0-1.49-.79c.61-1.27.7-3.37.7-5.52l1.62.1c0,.59,0,1.17,0,1.72a4.3,4.3,0,0,0,.5,1V64.14H94V62.5h2.09v-1H94.33V60h1.79V58.78h1.71V60h1.72v1.6H97.83v1h1.93v.17a3.08,3.08,0,0,0,1.29-1.93H99.92V59.2h5.72s0,.41,0,.61c-.08,2.06-.2,3-.5,3.4a1.44,1.44,0,0,1-.94.5,8.72,8.72,0,0,1-1.44,0,4,4,0,0,0-.45-1.55A4.46,4.46,0,0,1,100.77,64a9.3,9.3,0,0,0-1-.81v1H98.05v1.15h1.53V66.9H98.05Zm2.16-4.49h5.12v4.11h-5.12Zm1.73,2.63h1.54V65.61h-1.54Zm.86-6a5.92,5.92,0,0,1-.5,1.47,8.9,8.9,0,0,0,.92,0,.51.51,0,0,0,.38-.13,3.69,3.69,0,0,0,.22-1.38Z"/><path class="cls-1" d="M118.59,61.46H115l1.07.21c-.23.42-.46.83-.68,1.19h2.67v6.48c0,.77-.18,1.12-.71,1.33a6.12,6.12,0,0,1-2.23.24,5.34,5.34,0,0,0-.5-1.35c.54,0,1.27,0,1.45,0s.28-.06.28-.24v-5h-1.66v.07c0,.21,0,.34.23.34h.34a2.92,2.92,0,0,0,.78-.09c0,.41,0,.8.1,1.21a2.65,2.65,0,0,1-.84.1h-.85c-1.2,0-1.39-.56-1.39-1.58v0h-.6a2.16,2.16,0,0,1-1.43,1.8h4.29v3.29h-3.63v.47h-1.55V66.42l-.14,0a3.78,3.78,0,0,0-.68-1.09v5.57h-1.77V62.86h2.58c-.13-.36-.32-.79-.47-1.14l.83-.26H107V59.91h5c-.08-.28-.17-.58-.24-.84l1.81-.43c.14.38.29.87.41,1.27h4.63Zm-9.27,3.72c1-.17,1.34-.42,1.51-.84h-1.51Zm4.35-2.32a10.64,10.64,0,0,0,.5-1.4H111.4c.21.4.43.85.56,1.16l-.72.24Zm-2,4.54v.77h2.15V67.4Z"/><path class="cls-1" d="M99.32,78.32H95.74l1.06.2c-.23.43-.46.84-.68,1.2H98.8v6.47c0,.77-.18,1.12-.71,1.34a6.25,6.25,0,0,1-2.24.23,4.68,4.68,0,0,0-.5-1.35c.54,0,1.27,0,1.45,0s.29-.07.29-.25v-5H95.43v.06c0,.22,0,.35.23.35H96a3.42,3.42,0,0,0,.79-.09c0,.41,0,.79.1,1.21a3,3,0,0,1-.85.1h-.85c-1.19,0-1.38-.57-1.38-1.58v0h-.61A2.15,2.15,0,0,1,91.77,83h4.29v3.28H92.42v.48H90.88V83.28l-.14,0a4.17,4.17,0,0,0-.68-1.09v5.58H88.29V79.72h2.58c-.13-.36-.32-.8-.48-1.14l.84-.26H87.75V76.76h5c-.08-.28-.17-.57-.25-.83l1.82-.44c.14.39.29.88.41,1.27h4.62ZM90.06,82c1-.17,1.33-.41,1.5-.83h-1.5Zm4.34-2.31a9.79,9.79,0,0,0,.5-1.4H92.14c.21.4.42.85.55,1.15l-.72.25Zm-2,4.53V85h2.16v-.78Z"/><path class="cls-1" d="M100.74,81.9h5.1v5.87H104v-.56H102.5v.62h-1.76Zm9.6-.91h-7.89V76.11h7.89Zm-7.84,2.7v1.73H104V83.69Zm5.93-5.8h-4.18v1.33h4.18Zm3.56,4v5.87h-1.88v-.56h-1.57v.62h-1.78V81.9Zm-1.88,3.52V83.69h-1.57v1.73Z"/><path class="cls-1" d="M119.89,81.9v1.51l.47-.7c1.23.46,3.3,1.25,4.33,1.74l-1.06,1.67c-.82-.45-2.46-1.18-3.74-1.72v3.41h-2V81.9h-4.58V80.05h4.49V75.62h2V77h4.14v1.79H119.8v1.29h5.32V81.9Z"/><path class="cls-3" d="M29.06,70.21A5.06,5.06,0,0,0,25.91,69c-1.16,0-1.93.35-1.93,1.22,0,1.86,6.69,1.12,6.69,5.36,0,2-1.32,3.57-3.85,4v2.31h-2V79.63a7.35,7.35,0,0,1-4.27-1.72l1.36-2.1a5.27,5.27,0,0,0,3.54,1.33c1.59,0,2.27-.43,2.27-1.29C27.69,74,21,74.66,21,70.42c0-2.13,1.43-3.59,3.78-3.88V64.26h2v2.28a6.84,6.84,0,0,1,3.78,1.82Z"/><path class="cls-3" d="M33.6,77.14h2.77v-7.4H34V67.82a8.92,8.92,0,0,0,3.22-1.18h2.29v10.5h2.35v2.52H33.6Z"/><path class="cls-3" d="M43.61,73.08c0-4.48,1.85-6.68,4.6-6.68s4.62,2.24,4.62,6.68S51,79.91,48.21,79.91,43.61,77.56,43.61,73.08Zm6.28,0c0-3.55-.75-4.28-1.68-4.28s-1.66.73-1.66,4.28.73,4.41,1.66,4.41S49.89,76.65,49.89,73.08Z"/><path class="cls-3" d="M54.26,73.08c0-4.48,1.86-6.68,4.6-6.68s4.63,2.24,4.63,6.68-1.88,6.83-4.63,6.83S54.26,77.56,54.26,73.08Zm6.29,0c0-3.55-.76-4.28-1.69-4.28s-1.66.73-1.66,4.28.74,4.41,1.66,4.41S60.55,76.65,60.55,73.08Z"/></g></g></svg>