<svg xmlns="http://www.w3.org/2000/svg" viewBox="0 0 139.04 139.04"><defs><style>.cls-1{fill:#fff;}.cls-2{fill:#ffc517;}.cls-3,.cls-4{fill:none;stroke:#fff;stroke-miterlimit:10;stroke-width:3px;}.cls-4{stroke-dasharray:8.51 8.51;}.cls-5{fill:#32323f;opacity:0.25;}.cls-6{fill:#ffe369;}.cls-6,.cls-8{fill-rule:evenodd;}.cls-7{fill:#3cbaad;}.cls-8{fill:#ffa099;}</style></defs><g id="圖層_2" data-name="圖層 2"><g id="圖層_1-2" data-name="圖層 1"><circle class="cls-1" cx="69.52" cy="69.52" r="69.52"/><path class="cls-2" d="M112.24,54a6.41,6.41,0,0,1,5.41-7q-.77-7.87-1.53-15.81c-9.94,2.6-27.91,5.67-48.52,7.78s-38.8,2.56-49,1.75c.52,5.26,1,10.52,1.54,15.81h.12A6.49,6.49,0,0,1,27,62.45,5.81,5.81,0,0,1,21.41,69h-.12q.81,8.43,1.62,16.9c32.47-.4,65.12-4.22,97.57-9.93q-.81-8.28-1.62-16.6A5.88,5.88,0,0,1,112.24,54Z"/><path class="cls-3" d="M37.27,43.5l.48,5.11"/><path class="cls-4" d="M38.57,57.34q.63,6.54,1.24,13.11"/><path class="cls-3" d="M40.22,74.82c.16,1.72.33,3.43.49,5.15"/><path class="cls-1" d="M44.44,47.17l2-.18q1.1,11.76,2.2,23.54l-2,.15Q45.54,58.9,44.44,47.17Z"/><path class="cls-1" d="M54.74,70.05q-1.1-11.82-2.2-23.61l-2,.19-2,.18q1.09,11.77,2.21,23.57l2-.16Z"/><path class="cls-1" d="M73,68.33,70.75,44.66l-2,.2-2,.21,2.22,23.68,2-.21Z"/><path class="cls-1" d="M90.17,66.33Q89.06,54.6,88,42.84l-2,.22-2,.21Q85,55.08,86.12,66.83l2-.25Z"/><path class="cls-1" d="M96.24,65.56Q95.13,53.89,94,42.17l-2,.23-2,.22q1.11,11.75,2.23,23.46l2-.26Z"/><path class="cls-1" d="M54.56,46.25l2-.19q1.11,11.82,2.21,23.65l-2,.17Q55.66,58.06,54.56,46.25Z"/><path class="cls-1" d="M72.77,44.45l2-.21L77,67.89l-2,.22Z"/><path class="cls-1" d="M75.81,44.13l2-.21,2.22,23.63-2,.22Q76.92,56,75.81,44.13Z"/><path class="cls-1" d="M79.86,43.7l2-.21L84.1,67.07l-2,.24Q81,55.52,79.86,43.7Z"/><path class="cls-1" d="M64.87,69.15l2-.2q-1.11-11.83-2.21-23.68l-2,.2-2,.2-2,.2q1.1,11.82,2.21,23.66l2-.19Z"/><path class="cls-1" d="M102.31,64.74l2-.28q-1.12-11.55-2.23-23.18l-2,.22-2,.23L96,42q1.11,11.7,2.23,23.34l2-.27Z"/><path class="cls-1" d="M103.12,41.17l2-.23q1.11,11.58,2.22,23.1l-2,.28Q104.24,52.79,103.12,41.17Z"/><path class="cls-1" d="M46.88,73.17l2-.14c.08.92.17,1.85.26,2.77l-2,.14C47.06,75,47,74.09,46.88,73.17Z"/><path class="cls-1" d="M50.93,72.88l4-.32c.09.92.17,1.85.26,2.78l-4.05.31C51.1,74.73,51,73.8,50.93,72.88Z"/><path class="cls-1" d="M57,72.39l2-.18c.08.93.17,1.86.26,2.79l-2,.17C57.18,74.24,57.09,73.31,57,72.39Z"/><path class="cls-1" d="M61.05,72c2-.18,4-.37,6.08-.57.08.93.17,1.85.26,2.78-2,.2-4,.4-6.08.58C61.23,73.89,61.14,73,61.05,72Z"/><path class="cls-1" d="M69.15,71.25q2-.19,4-.42c.09.93.18,1.86.26,2.79l-4,.42C69.33,73.11,69.24,72.18,69.15,71.25Z"/><path class="cls-1" d="M75.23,70.61l2-.22c.09.93.17,1.85.26,2.78l-2,.23C75.4,72.47,75.31,71.54,75.23,70.61Z"/><path class="cls-1" d="M78.26,70.28l6.08-.71c.08.92.17,1.85.26,2.77l-6.08.72C78.44,72.13,78.35,71.2,78.26,70.28Z"/><path class="cls-1" d="M86.36,69.32l4-.5c.08.92.17,1.84.26,2.76l-4,.51C86.53,71.17,86.45,70.25,86.36,69.32Z"/><path class="cls-1" d="M92.43,68.56l4-.53c.09.91.17,1.83.26,2.74l-4,.54C92.61,70.39,92.52,69.48,92.43,68.56Z"/><path class="cls-1" d="M98.5,67.75q4.56-.61,9.1-1.27l.27,2.7c-3,.45-6.07.89-9.11,1.31C98.68,69.58,98.59,68.67,98.5,67.75Z"/><path class="cls-5" d="M50.07,106.24c0,.23-4.15.49-8.92.49s-8.65-.19-8.65-.41,3.87-.41,8.65-.41S50.07,106,50.07,106.24Z"/><path class="cls-5" d="M106.41,109c0,.21-3,.45-6.4.45s-6.2-.17-6.2-.38,2.78-.37,6.2-.37S106.41,108.82,106.41,109Z"/><path class="cls-5" d="M83.7,112.84c0,.23-5.5.5-11.84.5s-11.49-.19-11.49-.42,5.15-.42,11.49-.42S83.7,112.6,83.7,112.84Z"/><path class="cls-6" d="M30.08,72.72c.83,2.37,6.88,17.39,7.08,18.74s-1.67,11.1-1.91,12.31c-.46,2.4.82,1.92,2.78,2.27,2.6.47,3,1.12,3.53-1.86S43,93.86,44.22,92.54c2.23-2.29,11.35-13.87,12.18-14.66,1.14-1.08.68-1.64-1.65-2.11-3.49-.7-3.54-1.55-5.89,1.64s-7.09,9.79-7.24,9.7c-.82-1.54-4-13.44-4.75-14.13a7.52,7.52,0,0,0-3.47-1.23C32.1,71.54,29.34,70.58,30.08,72.72Z"/><path class="cls-6" d="M50,95.52a1.87,1.87,0,0,0-1.5-2.15L32.47,90.5a1.83,1.83,0,0,0-1.38.3A1.88,1.88,0,0,0,30.32,92h0a1.9,1.9,0,0,0,.31,1.39,1.87,1.87,0,0,0,1.19.76L47.89,97A1.87,1.87,0,0,0,50,95.52Z"/><path class="cls-6" d="M49.13,101.28a1.83,1.83,0,0,0-.3-1.38,1.85,1.85,0,0,0-1.19-.77L31.57,96.26a1.84,1.84,0,0,0-2.15,1.49h0a1.85,1.85,0,0,0,1.5,2.15L47,102.77a1.84,1.84,0,0,0,2.15-1.49Z"/><path class="cls-7" d="M109.22,97.42a7,7,0,0,1-.56,3.93,7.26,7.26,0,0,1-2.81,3.06A11.89,11.89,0,0,1,101,106a11.21,11.21,0,0,1-5.84-.51,7.51,7.51,0,0,1-2.91-2.14,5.64,5.64,0,0,1-1.4-2.89,2.07,2.07,0,0,1,1.81-2.36,1.82,1.82,0,0,1,1.32.3,3.77,3.77,0,0,1,1.08,1.29,9.19,9.19,0,0,0,1.21,1.72,3.88,3.88,0,0,0,1.61,1,5.23,5.23,0,0,0,2.52.14,5.54,5.54,0,0,0,3.25-1.44,2.89,2.89,0,0,0,1-2.6,2.54,2.54,0,0,0-1-1.78,4.65,4.65,0,0,0-2-.85c-.78-.14-1.81-.28-3.09-.39a21.89,21.89,0,0,1-4.37-.79,6.83,6.83,0,0,1-3-1.76,5.6,5.6,0,0,1-1.46-3.23,5.86,5.86,0,0,1,.58-3.54,6.73,6.73,0,0,1,2.7-2.7,12.64,12.64,0,0,1,4.54-1.44,11.47,11.47,0,0,1,3.76,0,7.83,7.83,0,0,1,2.78,1A5.94,5.94,0,0,1,106,84.79a4.31,4.31,0,0,1,.73,1.82,2.24,2.24,0,0,1-.38,1.59,2,2,0,0,1-1.39.88,1.73,1.73,0,0,1-1.28-.24,5.73,5.73,0,0,1-1.09-1.19,6,6,0,0,0-1.8-1.84,4.48,4.48,0,0,0-3-.34A5,5,0,0,0,95,86.67a2.36,2.36,0,0,0-.85,2.08,2,2,0,0,0,.55,1.14,3.15,3.15,0,0,0,1.16.73,6.88,6.88,0,0,0,1.43.38c.47.08,1.24.17,2.32.29,1.35.13,2.58.3,3.69.52a11,11,0,0,1,2.89,1,5.5,5.5,0,0,1,2,1.75A6.68,6.68,0,0,1,109.22,97.42Z"/><path class="cls-7" d="M102.45,108.71l-2.47.34a.79.79,0,0,1-.9-.67l-4-28.73a.8.8,0,0,1,.68-.89l2.47-.35a.79.79,0,0,1,.89.68l4,28.73A.8.8,0,0,1,102.45,108.71Z"/><path class="cls-8" d="M75.27,78.5c-5.8,1.06-21.92,8.49-15,23.94,6.55,14.65,22.1,10,25.51,7.89s4.38-2.26,2.26-4.6-1.33-2.37-3.92-.76-13.6,6-18-5.17C62.78,91.53,69.68,86,72.73,85c3.27-1.12,3.89-.71,4-3.89C76.74,79.3,76.3,78.32,75.27,78.5Z"/><path class="cls-8" d="M55.09,97.78s19.2-8.2,20.53-8.75,2-.39,2.35,1.8.29,2.46-2.1,3.41-16.28,7-17.46,7.56-1.89,1-2.94-1.64S54.54,98,55.09,97.78Z"/><path class="cls-8" d="M57.52,104.51s17.93-7.66,19.18-8.17S78.55,96,79,98.18s.33,2.43-1.9,3.32S61.84,108,60.74,108.56s-1.76,1-2.81-1.68S57,104.7,57.52,104.51Z"/></g></g></svg>