<svg xmlns="http://www.w3.org/2000/svg" viewBox="0 0 139.04 139.04"><defs><style>.cls-1{fill:#fff;}.cls-2{fill:#f90;}.cls-3{fill:#fff9d9;}.cls-10,.cls-4,.cls-9{fill:none;}.cls-4{stroke:#6e6e6e;stroke-linecap:round;stroke-linejoin:round;}.cls-10,.cls-4{stroke-width:2px;}.cls-5{fill:#6e6e6e;}.cls-6{fill:#ffc517;}.cls-7{fill:#ffa099;}.cls-8{fill:#ffe369;}.cls-10,.cls-9{stroke:#3cbaad;stroke-miterlimit:10;}.cls-9{stroke-width:3px;}</style></defs><g id="圖層_2" data-name="圖層 2"><g id="圖層_1-2" data-name="圖層 1"><circle class="cls-1" cx="69.52" cy="69.52" r="69.52"/><rect class="cls-2" x="80.26" y="15.43" width="57.27" height="35.5" rx="2.22"/><path class="cls-1" d="M92.18,37.22l-1.54.4v2.7c0,.83-.13,1.26-.6,1.53a4.16,4.16,0,0,1-2,.32,6.48,6.48,0,0,0-.48-1.64c.43,0,.94,0,1.1,0s.23-.06.23-.23V38.05l-1.18.29-.42-1.72,1.6-.32v-2H87.5V32.68h1.37V30.44h1.77v2.24h1.44v1.66H90.64v1.55L92,35.58Zm6.88-.92H97.42v5.87H95.64V36.3H94.29a12,12,0,0,1-1.54,6,7,7,0,0,0-1.46-1.16,11.68,11.68,0,0,0,1.23-5.86V31.62a27.91,27.91,0,0,0,5.07-1.12L98.65,32a29.45,29.45,0,0,1-4.34.9v1.66h4.75Z"/><path class="cls-1" d="M104.41,37.51l-1.32.33v2.43c0,.85-.14,1.3-.63,1.57a3.94,3.94,0,0,1-2,.33,7,7,0,0,0-.52-1.7c.43,0,.95,0,1.11,0s.23-.06.23-.23v-2l-1.27.32-.33-1.74,1.6-.33V34.1H99.81V32.45h1.43v-2h1.85v2h1.08V34.1h-1.08v2l1.11-.28ZM111,31.44V41.73h-1.9v-.88h-2.57v1h-1.8V31.44Zm-1.9,7.71v-6h-2.57v6Z"/><path class="cls-1" d="M119.5,38.73a11.55,11.55,0,0,1,.23,2.26l-1.22.18a10.55,10.55,0,0,0-.12-2.12,5.82,5.82,0,0,1-.79,2.59L116.37,41l.15-.23h-2v.94H113V38.91c0,.07-.11.14-.16.22a9.05,9.05,0,0,0-.94-1.75,11.25,11.25,0,0,0,1.49-4.93h-1.16V30.83H117v1.62h-1.94c-.12.8-.26,1.61-.45,2.37h2.1v5.53a7.91,7.91,0,0,0,.44-2.05l1.3.32,0,.26Zm-4.35-2.37h-.66V39.2h.66Zm8.56.19s0,.43,0,.62c-.11,2.85-.25,4-.57,4.47a1.32,1.32,0,0,1-.93.53,7.6,7.6,0,0,1-1.35,0,3.75,3.75,0,0,0-.44-1.52c.39,0,.74,0,.94,0a.44.44,0,0,0,.37-.16,2.14,2.14,0,0,0,.2-.72l-.46.19a6.14,6.14,0,0,0-.57-1.44l.87-.33c.08.13.17.3.25.46,0-.2,0-.42,0-.66h-4.72V30.85h6.15v1.54h-2v.42h1.61v1.37h-1.61v.48h1.61V36h-1.61v.51Zm-4.77-4.16v.42h.94v-.42Zm.94,1.79h-.94v.48h.94Zm-.94,2.37h.94V36h-.94Zm1.78,2a10.1,10.1,0,0,1,.46,1.84l-1.13.31a9.85,9.85,0,0,0-.4-1.87Z"/><path class="cls-3" d="M131.8,24.48A2.18,2.18,0,1,0,134,26.66,2.17,2.17,0,0,0,131.8,24.48Zm0,3.27a1.09,1.09,0,1,1,1.09-1.09A1.09,1.09,0,0,1,131.8,27.75Z"/><path class="cls-3" d="M126.4,19.07a2.19,2.19,0,1,0,2.18,2.19A2.19,2.19,0,0,0,126.4,19.07Zm0,3.28a1.1,1.1,0,1,1,1.09-1.09A1.09,1.09,0,0,1,126.4,22.35Z"/><path class="cls-3" d="M125.12,27.93a.55.55,0,0,1,0-.77L132.3,20a.55.55,0,0,1,.77,0,.53.53,0,0,1,0,.77l-7.18,7.18a.53.53,0,0,1-.77,0Z"/><path class="cls-4" d="M56.44,93l-4,5a2.38,2.38,0,0,0-.53,1.49h0a2.37,2.37,0,0,0,2.37,2.37H96.64"/><circle class="cls-5" cx="61.05" cy="106.68" r="4.61"/><circle class="cls-5" cx="88.77" cy="106.68" r="4.61"/><rect class="cls-6" x="54.91" y="77.38" width="20.38" height="15.35"/><rect class="cls-7" x="78.83" y="77.38" width="14.25" height="15.35"/><rect class="cls-8" x="73.74" y="70.43" width="10.19" height="22.3"/><path class="cls-9" d="M41.59,61.59l61.3,6L98.17,88a4.24,4.24,0,0,1-4,3.28L54.46,93a4.24,4.24,0,0,1-4.24-3L38.79,52.39a4.25,4.25,0,0,0-4.06-3H28.56"/><line class="cls-10" x1="45.14" y1="73.27" x2="101.58" y2="73.27"/><line class="cls-10" x1="48.33" y1="83.8" x2="99.14" y2="83.8"/><line class="cls-10" x1="48.33" y1="62.25" x2="55.47" y2="92.51"/><line class="cls-10" x1="55.98" y1="63" x2="60.7" y2="92.73"/><line class="cls-10" x1="63.23" y1="63.71" x2="65.72" y2="92.73"/><line class="cls-10" x1="69.61" y1="64.33" x2="71.28" y2="92.28"/><line class="cls-10" x1="76.72" y1="65.03" x2="77.25" y2="92.02"/><line class="cls-10" x1="82.89" y1="65.64" x2="82.89" y2="91.78"/><line class="cls-10" x1="89.5" y1="66.29" x2="88.77" y2="91.53"/><line class="cls-10" x1="95.77" y1="66.9" x2="94.22" y2="91.29"/><path class="cls-2" d="M20,46.73h13a0,0,0,0,1,0,0V52a0,0,0,0,1,0,0H20a2.11,2.11,0,0,1-2.11-2.11V48.84A2.11,2.11,0,0,1,20,46.73Z"/></g></g></svg>