<svg xmlns="http://www.w3.org/2000/svg" xmlns:xlink="http://www.w3.org/1999/xlink" viewBox="0 0 192.83 346.54"><defs><style>.cls-1{fill:#c48051;}.cls-2{fill:#d9d9d9;}.cls-3{fill:#acacac;}.cls-4{fill:#9e9fa3;}.cls-5{fill:#f0f0f0;}.cls-6{fill:url(#未命名漸層_6);}.cls-7{fill:url(#未命名漸層_6-2);}.cls-8{fill:#54ec87;}.cls-9{fill:#fff;}.cls-10{fill:#edeef2;}.cls-11{fill:#f9fafe;}.cls-12{fill:#1f1f1f;}.cls-13{fill:#f90;}.cls-14{fill:#ffc517;}.cls-15{fill:#ffef91;}.cls-16{fill:#ea8634;}.cls-17{fill:#ffd06b;}.cls-18{fill:#ffa959;}.cls-19{fill:#ffd893;}</style><linearGradient id="未命名漸層_6" x1="39.79" y1="217.45" x2="53.16" y2="236.65" gradientUnits="userSpaceOnUse"><stop offset="0" stop-color="#fff"/><stop offset="1" stop-color="#fff" stop-opacity="0"/></linearGradient><linearGradient id="未命名漸層_6-2" x1="-5514.03" y1="217.45" x2="-5500.65" y2="236.65" gradientTransform="matrix(-1, 0, 0, 1, -5372.69, 0)" xlink:href="#未命名漸層_6"/></defs><g id="圖層_2" data-name="圖層 2"><g id="圖層_1-2" data-name="圖層 1"><polygon class="cls-1" points="0 243.34 92.45 223.37 179.12 243.34 89.56 265.96 0 243.34"/><rect class="cls-2" x="35.24" y="167.57" width="110.32" height="38.22" rx="18.81"/><path class="cls-3" d="M47.58,174.16s6.08-4.13,17.06-3.87,17.16.22,21.46,8-1.68,16.55-11.63,18.48-26.11,6.21-31-3.49S47.58,174.16,47.58,174.16Z"/><path class="cls-3" d="M132.58,174.16s-6.08-4.13-17.06-3.87-17.16.22-21.46,8,1.68,16.55,11.64,18.48,26.1,6.21,31-3.49S132.58,174.16,132.58,174.16Z"/><path class="cls-4" d="M112.68,205.8H67.46a2,2,0,0,1-2-2v-3.29h49.18v3.29A2,2,0,0,1,112.68,205.8Z"/><path class="cls-5" d="M118.85,261.15H61.94A26.45,26.45,0,0,1,35.5,234.7V205.8H145.29v28.9A26.45,26.45,0,0,1,118.85,261.15Z"/><path class="cls-6" d="M42.11,205.8H46.8s-.26,24.2,0,26.4.39,11.37,4.65,15.12l-3.36,2.59s-6.46-4.4-6.72-14.87S42.11,205.8,42.11,205.8Z"/><path class="cls-7" d="M139,205.8h-4.69s.26,24.2,0,26.4-.39,11.37-4.65,15.12l3.36,2.59s6.46-4.4,6.72-14.87S139,205.8,139,205.8Z"/><circle class="cls-8" cx="90.4" cy="219.65" r="2.97"/><path class="cls-9" d="M112.25,208.19H68.54a2.4,2.4,0,0,1-2.4-2.39h48.51A2.39,2.39,0,0,1,112.25,208.19Z"/><path class="cls-10" d="M63.06,186.2h0a4.91,4.91,0,0,1-6.57-2.32L43.44,156.61a6.72,6.72,0,0,1,3.17-9h0a3.13,3.13,0,0,1,4.18,1.47l14.59,30.51A4.93,4.93,0,0,1,63.06,186.2Z"/><ellipse class="cls-11" cx="57.65" cy="147.18" rx="17.45" ry="16.29"/><rect class="cls-12" x="46.92" y="142.4" width="15.9" height="6.07" rx="3.04"/><path class="cls-2" d="M71.32,136.51s9.69-3,14,4.42l-.9,15.29s-5.91,6-14.18,3.08Z"/><path class="cls-10" d="M116.87,186.2h0a4.92,4.92,0,0,0,6.57-2.32l13-27.27a6.72,6.72,0,0,0-3.16-9h0a3.13,3.13,0,0,0-4.18,1.47l-14.59,30.51A4.92,4.92,0,0,0,116.87,186.2Z"/><ellipse class="cls-11" cx="122.28" cy="147.18" rx="17.45" ry="16.29"/><rect class="cls-12" x="117.11" y="142.4" width="15.9" height="6.07" rx="3.04"/><path class="cls-2" d="M108.61,136.51s-9.69-3-14,4.42l.9,15.29s5.91,6,14.19,3.08Z"/><polygon class="cls-13" points="0 243.34 89.56 265.96 89.56 346.54 7.01 315.11 0 243.34"/><polygon class="cls-14" points="179.12 243.34 89.56 265.96 89.56 346.54 172.11 315.11 179.12 243.34"/><polygon class="cls-14" points="29.25 250.73 32.1 324.66 44.78 329.49 48.79 255.66 29.25 250.73"/><polygon class="cls-15" points="116.2 259.23 118.06 335.68 139.17 327.64 144.72 252.03 116.2 259.23"/><polygon class="cls-16" points="159.32 87.92 90.74 106.8 19.8 101.61 86.45 63.11 159.32 87.92"/><path class="cls-17" d="M121,32.92c3.78-7.73,4.65-17.07,1.32-25A24.1,24.1,0,0,0,117.46.61a21.84,21.84,0,0,1,5,1.75A23,23,0,0,1,133.83,15.5c3.73,11.18-2,23.82-11,31.43a55.12,55.12,0,0,1-15.44,8.88c-3.86,1.52-11.33,5.41-15.52,4A5.11,5.11,0,0,1,89,57.08a42.27,42.27,0,0,0,14.35-5.74C110.73,46.85,117.19,40.65,121,32.92Z"/><path class="cls-18" d="M86.25,26.7c1.61-11,8.24-22,18.8-25.56A23,23,0,0,1,117.46.61a24.64,24.64,0,0,1,4.25,6.08,23.09,23.09,0,0,0-5.32,0c-8,1-15,6.6-18.85,13.67S92.6,35.76,93.13,43.8a83.94,83.94,0,0,0,1.7,11.7A36.11,36.11,0,0,1,89,57.08c-1.57-3.06-1.72-7.73-2.15-10.35A65.35,65.35,0,0,1,86.25,26.7Z"/><path class="cls-17" d="M47.08,41.05c-5.38-6.72-8.25-15.65-6.73-24.12a24.18,24.18,0,0,1,3.13-8.18A22.07,22.07,0,0,0,39,11.53a23,23,0,0,0-8.28,15.32c-1.21,11.72,7.1,22.82,17.54,28.28a54.82,54.82,0,0,0,17,5.31c4.1.65,12.24,2.82,16,.54a5.16,5.16,0,0,0,2.22-3.29,42.42,42.42,0,0,1-15.26-2.48C60.11,52.42,52.45,47.78,47.08,41.05Z"/><path class="cls-18" d="M79.62,27.43C75.65,17,66.78,7.72,55.7,6.57A22.83,22.83,0,0,0,43.48,8.75a24.05,24.05,0,0,0-2.82,6.86,23.24,23.24,0,0,1,5.19-1.15c8-.78,16,3.19,21.36,9.24s8.18,14,9.41,21.92a84.48,84.48,0,0,1,.88,11.79,36.67,36.67,0,0,0,6,.28c.87-3.33,0-7.92-.16-10.57A65.4,65.4,0,0,0,79.62,27.43Z"/><path class="cls-19" d="M83.15,55.78c-2.4-.33-4.91-1.65-7.09-.6s-2.71,4.23-1.52,6.37,3.55,3.35,5.92,4A18.86,18.86,0,0,0,95.51,63c2.64-1.76,6.45-7.61,1.63-9.33-1.85-.66-4,.15-5.74.68C88.75,55.17,86,56.16,83.15,55.78Z"/><polygon class="cls-1" points="42.69 90.39 87.86 94.93 138.11 81.03 86.74 66.05 42.69 90.39"/><polyline class="cls-13" points="87.45 73.25 85.47 53.12 20.95 77.46 19.8 101.61"/><polyline class="cls-14" points="87.45 73.25 85.47 53.12 153.5 64.45 159.32 87.92"/><path class="cls-9" d="M181.11,138c-5,.8-11.89,10.43-11.08,15.38-.81-5-10.44-11.89-15.39-11.09,5-.8,11.89-10.43,11.09-15.38C166.53,131.85,176.16,138.79,181.11,138Z"/><path class="cls-9" d="M192.83,122.35c-3.69.59-8.87,7.78-8.27,11.48-.6-3.7-7.79-8.88-11.48-8.28,3.69-.6,8.87-7.78,8.27-11.48C182,117.77,189.14,122.94,192.83,122.35Z"/></g></g></svg>