<svg xmlns="http://www.w3.org/2000/svg" xmlns:xlink="http://www.w3.org/1999/xlink" viewBox="0 0 206.07 233.72"><defs><style>.cls-1{fill:#c48051;}.cls-2{fill:#ea8634;}.cls-3{fill:#ffd06b;}.cls-4{fill:#ffa959;}.cls-5{fill:#ffd893;}.cls-6{fill:#f90;}.cls-7{fill:#ffc517;}.cls-8{fill:#fff;}.cls-9{fill:#d9d9d9;}.cls-10{fill:#acacac;}.cls-11{fill:#9e9fa3;}.cls-12{fill:#f0f0f0;}.cls-13{fill:url(#未命名漸層_6);}.cls-14{fill:url(#未命名漸層_6-2);}.cls-15{fill:#54ec87;}.cls-16{fill:#edeef2;}.cls-17{fill:#f9fafe;}.cls-18{fill:#1f1f1f;}.cls-19{fill:#ffef91;}</style><linearGradient id="未命名漸層_6" x1="53.29" y1="104.86" x2="66.64" y2="124.02" gradientUnits="userSpaceOnUse"><stop offset="0" stop-color="#fff"/><stop offset="1" stop-color="#fff" stop-opacity="0"/></linearGradient><linearGradient id="未命名漸層_6-2" x1="-4481.28" y1="104.86" x2="-4467.92" y2="124.02" gradientTransform="matrix(-1, 0, 0, 1, -4326.62, 0)" xlink:href="#未命名漸層_6"/></defs><g id="圖層_2" data-name="圖層 2"><g id="圖層_1-2" data-name="圖層 1"><polygon class="cls-1" points="13.57 130.71 105.86 110.77 192.38 130.71 102.97 153.28 13.57 130.71"/><polygon class="cls-2" points="139.27 87.77 70.81 106.61 0 101.43 66.54 63 139.27 87.77"/><path class="cls-3" d="M101,32.87c3.78-7.72,4.65-17,1.32-25A24,24,0,0,0,97.49.61a22.22,22.22,0,0,1,5,1.74,23,23,0,0,1,11.39,13.13c3.72,11.16-2,23.78-11,31.36a54.69,54.69,0,0,1-15.41,8.87c-3.86,1.52-11.32,5.4-15.49,4A5.18,5.18,0,0,1,69.11,57a42.43,42.43,0,0,0,14.33-5.73C90.76,46.77,97.22,40.58,101,32.87Z"/><path class="cls-4" d="M66.33,26.66c1.61-11,8.23-22,18.77-25.52A22.89,22.89,0,0,1,97.49.61a24.63,24.63,0,0,1,4.24,6.07,23,23,0,0,0-5.31,0c-8,1-14.94,6.59-18.81,13.64S72.67,35.7,73.2,43.72A85.15,85.15,0,0,0,74.89,55.4,34.61,34.61,0,0,1,69.11,57c-1.57-3-1.72-7.72-2.15-10.33A65.1,65.1,0,0,1,66.33,26.66Z"/><path class="cls-3" d="M27.23,41C21.87,34.27,19,25.36,20.51,16.9a24.21,24.21,0,0,1,3.13-8.17,22.45,22.45,0,0,0-4.45,2.78A23,23,0,0,0,10.92,26.8C9.71,38.5,18,49.58,28.43,55a54.91,54.91,0,0,0,17,5.31c4.09.65,12.22,2.81,16,.53a5.14,5.14,0,0,0,2.2-3.29,42,42,0,0,1-15.23-2.47C40.23,52.33,32.59,47.69,27.23,41Z"/><path class="cls-4" d="M59.71,27.38C55.75,17,46.9,7.7,35.84,6.56a22.83,22.83,0,0,0-12.2,2.17,24.23,24.23,0,0,0-2.82,6.85A22.71,22.71,0,0,1,26,14.44c8-.79,16,3.18,21.33,9.22s8.16,13.93,9.39,21.88a84.08,84.08,0,0,1,.88,11.77,35.39,35.39,0,0,0,6,.27c.87-3.32,0-7.9-.15-10.55A65.2,65.2,0,0,0,59.71,27.38Z"/><path class="cls-5" d="M63.24,55.68c-2.39-.33-4.9-1.64-7.08-.59s-2.71,4.22-1.52,6.35,3.55,3.35,5.91,4a18.77,18.77,0,0,0,15-2.51c2.63-1.76,6.44-7.6,1.62-9.31-1.84-.66-4,.14-5.72.68C68.83,55.07,66.05,56.06,63.24,55.68Z"/><polygon class="cls-1" points="22.84 90.24 67.94 94.77 118.1 80.89 66.83 65.94 22.84 90.24"/><polyline class="cls-6" points="67.53 73.12 65.56 53.03 1.15 77.32 0 101.43"/><polyline class="cls-7" points="67.53 73.12 65.56 53.03 133.46 64.34 139.27 87.77"/><path class="cls-8" d="M194.37,25.54c-5,.8-11.87,10.41-11.07,15.35C182.5,36,172.89,29,168,29.82c4.94-.8,11.86-10.41,11.06-15.35C179.81,19.41,189.42,26.34,194.37,25.54Z"/><path class="cls-8" d="M206.07,9.92c-3.69.6-8.86,7.77-8.26,11.46-.6-3.69-7.77-8.86-11.46-8.26,3.69-.6,8.86-7.77,8.26-11.46C195.21,5.35,202.38,10.52,206.07,9.92Z"/><rect class="cls-9" x="48.75" y="55.07" width="110.12" height="38.16" rx="18.78"/><path class="cls-10" d="M61.07,61.65s6.06-4.13,17-3.87,17.13.22,21.42,8S97.84,82.29,87.91,84.23s-26.07,6.19-31-3.49S61.07,61.65,61.07,61.65Z"/><path class="cls-10" d="M145.92,61.65s-6.06-4.13-17-3.87-17.13.22-21.42,8,1.68,16.51,11.61,18.45,26.07,6.19,31-3.49S145.92,61.65,145.92,61.65Z"/><path class="cls-11" d="M126.06,93.23H80.92a2,2,0,0,1-2-2V88H128v3.28A2,2,0,0,1,126.06,93.23Z"/><path class="cls-12" d="M132.21,148.48H75.41A26.4,26.4,0,0,1,49,122.08V93.23h109.6v28.85A26.4,26.4,0,0,1,132.21,148.48Z"/><path class="cls-13" d="M55.61,93.23h4.68s-.26,24.16,0,26.35.39,11.36,4.64,15.1l-3.35,2.58s-6.45-4.39-6.71-14.84S55.61,93.23,55.61,93.23Z"/><path class="cls-14" d="M152.34,93.23h-4.68s.25,24.16,0,26.35-.39,11.36-4.65,15.1l3.36,2.58s6.45-4.39,6.7-14.84S152.34,93.23,152.34,93.23Z"/><circle class="cls-15" cx="103.81" cy="107.05" r="2.96"/><path class="cls-8" d="M125.63,95.61H82a2.38,2.38,0,0,1-2.39-2.38H128A2.38,2.38,0,0,1,125.63,95.61Z"/><path class="cls-16" d="M76.52,73.67h0A4.92,4.92,0,0,1,70,71.35l-13-27.23a6.7,6.7,0,0,1,3.16-8.94h0a3.12,3.12,0,0,1,4.17,1.47L78.83,67.11A4.92,4.92,0,0,1,76.52,73.67Z"/><ellipse class="cls-17" cx="71.12" cy="34.71" rx="17.42" ry="16.26"/><rect class="cls-18" x="60.41" y="29.94" width="15.87" height="6.06" rx="3.03"/><path class="cls-9" d="M84.76,24.06s9.68-3,14,4.41l-.89,15.26s-5.9,6-14.16,3.08Z"/><path class="cls-16" d="M130.24,73.67h0a4.91,4.91,0,0,0,6.55-2.32l13-27.23a6.7,6.7,0,0,0-3.15-8.94h0a3.12,3.12,0,0,0-4.17,1.47L127.92,67.11A4.93,4.93,0,0,0,130.24,73.67Z"/><ellipse class="cls-17" cx="135.64" cy="34.71" rx="17.42" ry="16.26"/><rect class="cls-18" x="130.48" y="29.94" width="15.87" height="6.06" rx="3.03"/><path class="cls-9" d="M122,24.06s-9.68-3-14,4.41l.9,15.26s5.9,6,14.16,3.08Z"/><polygon class="cls-6" points="13.57 130.71 102.97 153.28 102.97 233.72 20.57 202.34 13.57 130.71"/><polygon class="cls-7" points="192.38 130.71 102.97 153.28 102.97 233.72 185.38 202.34 192.38 130.71"/><polygon class="cls-7" points="42.77 138.08 45.62 211.88 58.27 216.7 62.28 143 42.77 138.08"/><polygon class="cls-19" points="129.57 146.56 131.43 222.88 152.5 214.86 158.04 139.38 129.57 146.56"/></g></g></svg>