<svg xmlns="http://www.w3.org/2000/svg" viewBox="0 0 139.04 139.04"><defs><style>.cls-1{fill:#fff;}.cls-2{fill:#3cbaad;}.cls-3{fill:#1cada4;}.cls-4{fill:#ffe369;}.cls-5{fill:#ffc517;}</style></defs><g id="圖層_2" data-name="圖層 2"><g id="圖層_1-2" data-name="圖層 1"><circle class="cls-1" cx="69.52" cy="69.52" r="69.52"/><path class="cls-2" d="M56.6,57.17a21.22,21.22,0,0,0-2.37.09h-.14C39.38,58.65,27.31,72.61,27.31,88.17c0,18.07,16.78,20.18,29.29,20.18s26.91-1.88,28.93-16.73C87.63,74.23,73.82,57.17,56.6,57.17Z"/><path class="cls-2" d="M72.16,39.27l-4.48,13.6H45.53L41,39.27a2.17,2.17,0,0,1,.27-2,2.32,2.32,0,0,1,1.84-.94h7.13a6.7,6.7,0,0,1,12.65,0h7.13a2.3,2.3,0,0,1,1.83.94A2.14,2.14,0,0,1,72.16,39.27Z"/><path class="cls-3" d="M89.48,40H84.73v1.6c0,1-.23,1.45-.89,1.72a7.75,7.75,0,0,1-2.84.3,7.41,7.41,0,0,0-.72-1.76c.84,0,1.9,0,2.19,0s.4-.08.4-.33V40H78.09V38.26h4.78V37.12H79v-1.7h3.92V34.23c-1.24.11-2.48.17-3.65.2a6.89,6.89,0,0,0-.44-1.57,47.18,47.18,0,0,0,8.35-.94l1.29,1.48a33.18,33.18,0,0,1-3.69.64v1.38h4v1.7h-4v1.14h4.75Z"/><path class="cls-3" d="M93.56,39.84a4.07,4.07,0,0,0-.07-.51,10.24,10.24,0,0,0-2.76.56,12.68,12.68,0,0,0-.49-1.41c.32-.08.56-.37.93-.83a7.64,7.64,0,0,0,.63-.9,3.79,3.79,0,0,0-1.17.25,11.88,11.88,0,0,0-.48-1.36c.24-.08.43-.31.65-.68a12.86,12.86,0,0,0,1.25-3l1.44.57a17.57,17.57,0,0,1-1.39,2.82l.56,0c.27-.52.54-1.1.76-1.65l1.32.81a18,18,0,0,1-1.61,2.72l1.05-.28a17.27,17.27,0,0,1,.61,2.56ZM92,40.4a13.68,13.68,0,0,1-.5,3.16,8.77,8.77,0,0,0-1.28-.44,10.68,10.68,0,0,0,.45-2.93Zm1.19-.22A24.38,24.38,0,0,1,93.4,43l-1.22.22c0-.77-.08-1.95-.17-2.85ZM93.23,38q-.09-.36-.18-.69l-.58.78Zm1,1.82A18.49,18.49,0,0,1,94.83,42l-1.12.38a20.37,20.37,0,0,0-.51-2.22Zm5.6,1.94c.73.23,1.48.49,2,.67l-.68,1.22c-.67-.28-1.76-.71-2.71-1l.45-.86H97.24l.8.83c-1,.41-2.26.84-3.19,1.13a8,8,0,0,0-.6-1.21c.61-.18,1.44-.47,2.11-.75H94.91V38h6.32v3.74Zm-2.64-8.23h-2.8V32.42h2.8V32H99v.45h2.65v1.11H99v.28h2.33v1H94.83v-1h2.39Zm-2.77,1.55h7.2v2.65h-7.2Zm1.43,1.61h.59v-.56h-.59Zm.6,2.47h3.11v-.27H96.48Zm0,.87h3.11v-.28H96.48Zm0,.87h3.11v-.29H96.48Zm1.82-4.21v-.56h-.54v.56Zm1.83-.56h-.54v.56h.54Z"/><path class="cls-3" d="M111.6,41.72c.87.32,1.69.65,2.27.91l-1.28,1a28.6,28.6,0,0,0-3.43-1.48l.47-.48h-2.79l.94.43a15.3,15.3,0,0,1-3.88,1.52,10.24,10.24,0,0,0-1.28-1.27,17.27,17.27,0,0,0,2.87-.68h-1.27V38.19c-.25.05-.52.08-.81.12a5.74,5.74,0,0,0-.84-1.37,6.69,6.69,0,0,0,2.78-.7h-1.89a22.82,22.82,0,0,0,.4-2.43h2.28v-.37h-2.69v-1h2.69V32h1.6v.46h1.08V32h1.69v.46H113v2.39h-2.53v.41h3.33s0,.27,0,.43a2.81,2.81,0,0,1-.34,1.56,1.18,1.18,0,0,1-.78.34h-.13v4.15Zm-6.39-6.49h.88c0-.13,0-.27,0-.41h-.87Zm.74,2.66v.35h4.81v-.35Zm0,1.26v.34h4.81v-.34Zm0,1.25v.35h4.81V40.4Zm1.54-4.16a2.48,2.48,0,0,1-.44.68h1.77v-.68Zm1.33-1.42h-1.08c0,.14,0,.28,0,.41h1.1Zm-1.08-1h1.08v-.37h-1.08Zm2.77-.37v.37h.93v-.37Zm0,2.8v.68h.85a2,2,0,0,0-.16-.39,2.76,2.76,0,0,0,.59,0,.27.27,0,0,0,.25-.09,1,1,0,0,0,.07-.24Z"/><path class="cls-3" d="M80.33,63.34,82,61.09a4.58,4.58,0,0,0,3.12,1.45c1.39,0,2.29-.59,2.29-1.71,0-1.29-.68-2.06-3.82-2.06V56.26c2.55,0,3.36-.79,3.36-2a1.49,1.49,0,0,0-1.71-1.59,4,4,0,0,0-2.68,1.25l-1.81-2.19a7,7,0,0,1,4.65-1.85c3.1,0,5.13,1.45,5.13,4.12a3.42,3.42,0,0,1-2.41,3.3v.1A3.72,3.72,0,0,1,91,61.07c0,2.79-2.56,4.37-5.54,4.37A6.43,6.43,0,0,1,80.33,63.34Z"/><path class="cls-3" d="M100.48,59c-.83.23-1.65.43-2.5.65V64c0,1.34-.22,2-1,2.49a6.74,6.74,0,0,1-3.28.53,10.77,10.77,0,0,0-.79-2.68c.7,0,1.53,0,1.79,0s.38-.1.38-.38V60.32l-1.93.47L92.49,58c.76-.14,1.65-.32,2.61-.53V54.28H92.87V51.59H95.1V47.94H98v3.65h2.34v2.69H98V56.8l2.16-.5Zm11.19-1.51H109V67h-2.9V57.46h-2.19a19.66,19.66,0,0,1-2.52,9.71A11.76,11.76,0,0,0,99,65.27a19,19,0,0,0,2-9.52V49.86a45.63,45.63,0,0,0,8.23-1.81L111,50.52A46.34,46.34,0,0,1,103.94,52v2.7h7.73Z"/><path class="cls-4" d="M72.3,54.39a4.5,4.5,0,0,1-4.49,4.49H45.39a4.49,4.49,0,0,1,0-9H67.81A4.5,4.5,0,0,1,72.3,54.39Z"/><path class="cls-4" d="M61.49,78.86A7.28,7.28,0,0,0,57,77.11c-1.65,0-2.75.5-2.75,1.75,0,2.66,9.57,1.61,9.57,7.67,0,2.89-1.88,5.12-5.51,5.72v3.31H55.37V92.35a10.61,10.61,0,0,1-6.12-2.46l2-3a7.52,7.52,0,0,0,5.06,1.91c2.28,0,3.26-.63,3.26-1.85,0-2.69-9.58-1.71-9.58-7.78C50,76.1,52,74,55.37,73.6V70.34h2.91V73.6a9.81,9.81,0,0,1,5.41,2.6Z"/><path class="cls-4" d="M107,77a4.5,4.5,0,0,1-4.48,4.49L91.17,85.93,80,81.45a4.49,4.49,0,1,1,0-9h22.57A4.5,4.5,0,0,1,107,77Z"/><path class="cls-4" d="M107,77a4.5,4.5,0,0,1-4.48,4.49L91.17,85.93V72.48h11.36A4.5,4.5,0,0,1,107,77Z"/><path class="cls-5" d="M107,85.93a4.49,4.49,0,0,1-4.48,4.48L91.17,94.9,80,90.41a4.48,4.48,0,1,1,0-9h22.57A4.49,4.49,0,0,1,107,85.93Z"/><path class="cls-5" d="M107,85.93a4.49,4.49,0,0,1-4.48,4.48L91.17,94.9V81.45h11.36A4.49,4.49,0,0,1,107,85.93Z"/><path class="cls-4" d="M107,94.9a4.5,4.5,0,0,1-4.48,4.48l-11.36,4.49L80,99.38a4.49,4.49,0,1,1,0-9h22.57A4.5,4.5,0,0,1,107,94.9Z"/><path class="cls-4" d="M107,94.9a4.5,4.5,0,0,1-4.48,4.48l-11.36,4.49V90.41h11.36A4.5,4.5,0,0,1,107,94.9Z"/><path class="cls-5" d="M107,103.87a4.5,4.5,0,0,1-4.48,4.48H80a4.49,4.49,0,1,1,0-9h22.57A4.5,4.5,0,0,1,107,103.87Z"/><path class="cls-5" d="M107,103.87a4.5,4.5,0,0,1-4.48,4.48H91.17v-9h11.36A4.5,4.5,0,0,1,107,103.87Z"/></g></g></svg>