<svg xmlns="http://www.w3.org/2000/svg" viewBox="0 0 144.13 185.99"><defs><style>.cls-1{fill:#150301;}.cls-2{fill:#403a39;}.cls-3{fill:#fff;}.cls-4{fill:#2b1e1d;}.cls-5{fill:#140304;}</style></defs><g id="圖層_2" data-name="圖層 2"><g id="圖層_1-2" data-name="圖層 1"><path class="cls-1" d="M43.91,29.52S50.45.32,23.83,4c0,0-8.54,1.06-9.58,9.78,0,0-7.51,19,21.16,24.59Z"/><path class="cls-2" d="M30.22,11.24s4.26,3.16,7.59,10.34l-11,8.63S20,25.34,20.38,21.15,22.17,9.37,30.22,11.24Z"/><path class="cls-1" d="M98.52,19.55S100.18-.09,113,0c0,0,15,.7,15.68,10.76,0,0,6.24,16.27-8.48,20.43l-11.6,2.92Z"/><path class="cls-2" d="M103.54,16.08s4.8-9.85,11.67-7.48,5.83,17.94-8.75,16.45Z"/><path class="cls-1" d="M16.11,122.86C-11.33,98.14-1,65.31,26.7,23.89,33.54,13.66,91.56-8,115.92,21.52c13.54,16.4,24.48,35,26.11,44.39,2.27,13.18,6.27,37.34-10.68,52.84C129.43,120.5,72.54,171.32,16.11,122.86Z"/><path class="cls-3" d="M100.76,57.09c1.14,4.46-.52,8.74-3.71,9.55s-6.71-2.14-7.84-6.58.52-8.73,3.7-9.55S99.62,52.64,100.76,57.09Z"/><path class="cls-3" d="M40.47,63c-1.32,4.41-4.94,7.21-8.1,6.26S27.72,63.93,29,59.52s5-7.2,8.11-6.25S41.79,58.55,40.47,63Z"/><path class="cls-3" d="M61.58,62.52s26.28-1.31,26.67,18.59c0,0-3.85,17.15-25.65,16.13,0,0-25.81-3.73-22.53-20.53C40.07,76.71,45.05,63,61.58,62.52Z"/><path class="cls-1" d="M54.34,69.06c-1.15.7-2.3,2.42-1.94,3.48s4.58,5.15,6.89,5.13,9-3.44,10-4.34.5-5-.57-5.25-5.62,1.56-9.17,1.22C56.93,69.05,54.79,68.79,54.34,69.06Z"/><path class="cls-4" d="M54.6,69.62c-1,.56-2,1.93-1.71,2.79s4.22,4.52,6.25,4.51,7.53-2.69,8.39-3.41.42-4.28-.5-4.2c-1.32.1-4.67.86-7.8.59C57,69.69,55,69.41,54.6,69.62Z"/><path class="cls-2" d="M54.86,70.18c-.88.42-1.75,1.45-1.48,2.09s3.85,3.9,5.61,3.89,6.08-1.94,6.82-2.47.34-3.47-.43-3.16c-1.56.61-3.73.17-6.43,0A27.39,27.39,0,0,0,54.86,70.18Z"/><path class="cls-1" d="M53.07,82C55.51,93,71,89.22,71.85,80.6c.08-.79-2.89-.14-3.64.1A26.29,26.29,0,0,1,54,81.29C53.32,81.11,52.93,81.3,53.07,82Z"/><path class="cls-1" d="M94.67,54.69a4.56,4.56,0,0,0-2.36,1.39,24.52,24.52,0,0,0-1.54,2.23,1.09,1.09,0,0,0,0,1.13,1.16,1.16,0,0,0,1,.56l.41,0,.19,0c-.09,0-.14,0,0,0l.69.12c.42.07.84.16,1.26.25a15.77,15.77,0,0,0,3,.3,1.12,1.12,0,1,0,0-2.24,12.4,12.4,0,0,1-1.49-.08l-.16,0h.06l-.31,0-.63-.12c-1-.2-2-.38-3-.48l1,1.69c.25-.35.48-.7.71-1.06.09-.15.19-.3.29-.45l.15-.21c.11-.16-.18.22,0,0a3.61,3.61,0,0,1,.33-.35c.08-.07.28-.17,0,0l.21-.14.22-.13.12-.06-.07,0s.55-.18.6-.19a1.13,1.13,0,0,0-.6-2.17Z"/><path class="cls-1" d="M33.09,58.74c.62.49,1.25,1,1.84,1.49.32.28.63.57.92.88l.45.51.19.23c-.15-.18.11.15.13.18l1-1.69c-1.83.19-3.65.33-5.5.34a1.13,1.13,0,0,0,0,2.25c1.85,0,3.67-.15,5.5-.34a1.18,1.18,0,0,0,1-.56,1.09,1.09,0,0,0,0-1.13,13.71,13.71,0,0,0-2-2.2c-.61-.54-1.27-1-1.92-1.54a1.17,1.17,0,0,0-.79-.33,1.12,1.12,0,0,0-.79,1.91Z"/><path class="cls-1" d="M70,139.08c-.23,1.41-6.19,18.19-1.26,29.24,1.09,2.45,6.06,10.37,18.7,8.32,3.55-.57,7.17-3.35,9.91-5.48,6.15-4.77,10.37-7.28,8.18-15.81-1.47-5.75-4.62-11-7.35-16.12a18.86,18.86,0,0,0-3-4.39C80.92,146.33,70,139.08,70,139.08Z"/><path class="cls-3" d="M93.58,142.14c-1.89,2.6-10.39,10.33-15.36,8.51A31.5,31.5,0,0,1,72,147.31c1.17,2.37,2.49,6.13,8.25,8.1,1.73.59,3.8,0,9.91-5.85C91.79,147.83,93.58,142.14,93.58,142.14Z"/><path class="cls-1" d="M103.2,153.07c3.58,2.8,5.37,10,3.91,13.37,1.92.06,3.11-1,4.3-2.54,2.88-3.68,3.56-.33,4.22.45,1.55,1.82,4.25,3,2.7,3.94-2.3,1.36-3.74-2.4-5.39-.73s-4,3.29-8.63,8-9.21,6.1-13,3.24c-4.3-3.27-10.27-7.71-5.89-14,1.42-2.05,13.31-13.22,15.62-12.72A5.29,5.29,0,0,1,103.2,153.07Z"/><path class="cls-1" d="M72.54,178.27c-4.79.25-10.18.54-10.35,5.31-.14,3.88-2.23,2-3,1.76-1.93-.47-4.33,0-3.74-1.33.88-2,3.69-.21,4-2.13s1-4.14,1.9-9.57c1.54-10.7,10-9.23,18.69-9.72.4,3.41.81,6.82,1.21,10.24a5.18,5.18,0,0,1-.17,2.74c-.61,1.31-2.16,1.85-3.56,2.2A28,28,0,0,1,72.54,178.27Z"/><path class="cls-5" d="M63.39,151.52a32.75,32.75,0,0,1-9.38-.61c-3.91-1-9.75-2.24-12.52-5.48a2,2,0,0,1-.17-1.29c-1.41-1.3,0-1.64.78-2.6l.2-.24a2.74,2.74,0,0,1,0-.64c.08-.59.86-.82,1.62-.79a1.48,1.48,0,0,1,.31-.22,3,3,0,0,1,1.62,0,1.21,1.21,0,0,1,.19,0c2.29.12,3.55,1.88,5.47,2.94a13.91,13.91,0,0,0,6.78,1.95c.66,0,1.31-.08,2-.15l7.16-.77a6,6,0,0,1,2.61.11A3,3,0,0,1,72,146.07c.15,1.11-1,4.14-2,4.74a2.73,2.73,0,0,1-1.14.27l-4.58.38Z"/><path class="cls-3" d="M45.37,142.7c-.88.62.5,2.38,1.25,2.12a.73.73,0,0,0,.42-.62,2.72,2.72,0,0,1,.22-.78c.12-.25.46-.42.41-.75s-.26-.25-.44-.27A3.09,3.09,0,0,0,45.37,142.7Z"/><path class="cls-3" d="M43.36,142.41a.39.39,0,0,0-.15.66,1,1,0,0,0,.78.25l.12,0a.47.47,0,0,0,.22-.09.46.46,0,0,0-.13-.71A1,1,0,0,0,43.36,142.41Z"/><path class="cls-3" d="M44.18,141.14a.39.39,0,0,0-.15.66,1,1,0,0,0,.79.25l.11,0a.47.47,0,0,0,.22-.09.46.46,0,0,0-.13-.71A1,1,0,0,0,44.18,141.14Z"/><path class="cls-3" d="M43.62,143.56h0s0,0,0,0a.18.18,0,0,0-.11.2c-.12.26.21.62.47.6a.31.31,0,0,0,.17-.05h0a.16.16,0,0,0,.19-.06.15.15,0,0,0,.1-.16.3.3,0,0,0,0-.47C44.26,143.48,43.8,143.3,43.62,143.56Z"/><path class="cls-3" d="M44.46,144.58a.47.47,0,0,0-.18.49.3.3,0,0,0,0,.14.43.43,0,0,1,0,.07h0l0,0a.15.15,0,0,0,.05.06.51.51,0,0,0,.09.13.41.41,0,0,0,.32.1.39.39,0,0,0,.35-.07.34.34,0,0,0,.12-.36C45.31,144.79,44.8,144.41,44.46,144.58Z"/><path class="cls-3" d="M46,140.93a.47.47,0,0,0,0,.52.35.35,0,0,0,.08.12l.06.06h0s0,0,0,0a.18.18,0,0,0,.07,0,.54.54,0,0,0,.12.09.4.4,0,0,0,.34,0,.39.39,0,0,0,.31-.17.33.33,0,0,0,0-.38C46.91,140.88,46.31,140.66,46,140.93Z"/><path class="cls-5" d="M101.6,137.17c5.92-1.63,12.09-5,18.18-5.56a4.74,4.74,0,0,1,2,.08c.32.12.83,1,.71,1,1.73.43.74,1.33.53,2.47l-.06.28a2.9,2.9,0,0,1,.29.51c.19.52-.34,1.06-1,1.37a1.59,1.59,0,0,1-.16.32,2.62,2.62,0,0,1-1.3.74l-.15.1c-5,2.37-10.59,3.46-15.76,5.44-2.35.9-6.15,2.13-8.18-.07a3.46,3.46,0,0,1-.65-1.3c-.68-1.79-.65-2.43.93-3.41A16.9,16.9,0,0,1,101.6,137.17Z"/><path class="cls-3" d="M119.79,135.63c.44-.89-1.47-1.71-2-1.17a.73.73,0,0,0-.07.69,2.26,2.26,0,0,1,.17.74c0,.25-.18.55,0,.79s.32.09.47,0A2.83,2.83,0,0,0,119.79,135.63Z"/><path class="cls-3" d="M121.56,135a.38.38,0,0,0-.17-.61.9.9,0,0,0-.75.15.3.3,0,0,0-.08.08.39.39,0,0,0-.14.17.42.42,0,0,0,.42.52A1,1,0,0,0,121.56,135Z"/><path class="cls-3" d="M121.45,136.37a.36.36,0,0,0-.17-.6.91.91,0,0,0-.75.15l-.07.08a.33.33,0,0,0-.14.17.42.42,0,0,0,.41.52A.92.92,0,0,0,121.45,136.37Z"/><path class="cls-3" d="M120.83,134.15h0s0,0,0,0a.15.15,0,0,0,0-.21c0-.27-.43-.41-.64-.28a.28.28,0,0,0-.12.12h0a.14.14,0,0,0-.12.13.15.15,0,0,0,0,.18.28.28,0,0,0,.21.38C120.34,134.51,120.8,134.45,120.83,134.15Z"/><path class="cls-3" d="M119.69,133.7a.43.43,0,0,0-.06-.48.3.3,0,0,0-.1-.09l-.06,0h0l-.07,0-.13-.06a.64.64,0,0,0-.56.27.3.3,0,0,0,.07.35A.64.64,0,0,0,119.69,133.7Z"/><path class="cls-3" d="M120,137.37a.42.42,0,0,0-.2-.44.32.32,0,0,0-.13-.06l-.07,0h-.13a.31.31,0,0,0-.14,0,.36.36,0,0,0-.27.15.33.33,0,0,0-.17.27.27.27,0,0,0,.16.31A.63.63,0,0,0,120,137.37Z"/></g></g></svg>