<svg xmlns="http://www.w3.org/2000/svg" viewBox="0 0 103.51 128.1"><defs><style>.cls-1{fill:#fff;}.cls-2{fill:#b6d1d0;}.cls-3{fill:#679996;}.cls-4{fill:#00a4ef;}.cls-5{fill:#ffc517;}.cls-6{fill:#ed4848;}.cls-7{fill:#00c08b;}.cls-8{fill:#f90;}.cls-9{fill:#068981;}.cls-10{fill:#178f7f;}</style></defs><g id="圖層_2" data-name="圖層 2"><g id="圖層_1-2" data-name="圖層 1"><rect class="cls-1" x="19.4" y="4.45" width="64.72" height="119.19" rx="10.94" transform="translate(-23.07 29.67) rotate(-26.39)"/><rect class="cls-2" x="23.14" y="9.14" width="57.23" height="109.82" rx="6.75" transform="translate(-23.07 29.67) rotate(-26.39)"/><path class="cls-1" d="M37.87,16.46l-14.08,7a5.66,5.66,0,0,1-7.59-2.56l-.2-.39,24.23-12,.2.39A5.68,5.68,0,0,1,37.87,16.46Z"/><rect class="cls-3" x="24.42" y="34.75" width="50.82" height="50.82" rx="7.71" transform="translate(-21.55 28.41) rotate(-26.39)"/><path class="cls-1" d="M77,75.06,45.27,90.79a7.7,7.7,0,0,1-10.34-3.48l-2.3-4.64L78.16,60.09l2.3,4.64A7.71,7.71,0,0,1,77,75.06Z"/><rect class="cls-4" x="53.16" y="76.76" width="2.32" height="1.06" rx="0.21" transform="translate(-28.69 32.19) rotate(-26.39)"/><path class="cls-5" d="M61.51,74.78h0A1.86,1.86,0,0,0,59,74a1.75,1.75,0,0,0-.63.51.23.23,0,0,0-.27-.07l-.56.29a.2.2,0,0,0-.1.28L59,78.13a.22.22,0,0,0,.29.09l.56-.28a.21.21,0,0,0,.1-.28L59.14,76h0a.81.81,0,0,1,.36-1.07.8.8,0,0,1,1.06.36L61.41,77a.2.2,0,0,0,.28.09l.57-.28a.22.22,0,0,0,.1-.28l-.85-1.71Z"/><path class="cls-6" d="M67.19,69.9a2,2,0,1,0,2.65.89A2,2,0,0,0,67.19,69.9Zm1.29,2.6a.92.92,0,1,1,.42-1.24A.92.92,0,0,1,68.48,72.5Z"/><rect class="cls-7" x="56.55" y="75.15" width="1.06" height="3.96" rx="0.21" transform="translate(-28.33 33.4) rotate(-26.39)"/><path class="cls-8" d="M64.75,71.11l-.56.28a.21.21,0,0,0-.1.28l.08.17a1.93,1.93,0,0,0-1.24.17,2,2,0,0,0,1.76,3.55,2,2,0,0,0,.89-.88l.18.35.23.47a1,1,0,0,1-1.63,1,.22.22,0,0,0-.26-.07l-.58.29a.21.21,0,0,0-.08.3,2,2,0,0,0,3.5-2l-.24-.48-.93-1.89L65,71.2A.22.22,0,0,0,64.75,71.11Zm-.53,3.5a.92.92,0,1,1,.42-1.23A.92.92,0,0,1,64.22,74.61Z"/><path class="cls-4" d="M53.48,74.64,50.84,76a.21.21,0,0,0-.1.28l2.39,4.83a.21.21,0,0,0,.28.1l.57-.29a.2.2,0,0,0,.1-.28l-2-4.07,2.84-1.4h0A1.06,1.06,0,0,0,53.48,74.64Z"/><circle class="cls-7" cx="52.03" cy="81.23" r="0.53"/><path class="cls-7" d="M55.6,73.73a.21.21,0,0,0-.33.17l0,.67a.21.21,0,0,0,.3.2l.61-.3a.21.21,0,0,0,0-.36Z"/><path class="cls-7" d="M47.1,79a2.38,2.38,0,1,0,3.4,2.39.2.2,0,0,0-.3-.21l-.75.37a.24.24,0,0,0-.1.1,1.25,1.25,0,0,1-.63.67,1.32,1.32,0,0,1-1.52-.25l3-1.47h0l.08,0a.22.22,0,0,0,.1-.27,2.56,2.56,0,0,0-.11-.24A2.39,2.39,0,0,0,47.1,79Zm-.27,2.32a1.32,1.32,0,0,1,2.24-1.12Z"/><path class="cls-1" d="M56.94,44a14.42,14.42,0,0,1,3.69,15.92A14.77,14.77,0,0,1,49,69,14.35,14.35,0,0,1,35.28,46.44a14.94,14.94,0,0,1,14.24-6A14.68,14.68,0,0,1,56.94,44Z"/><path class="cls-9" d="M43.08,48.15c.39-.37.81-1,1.45-.89.56.33,1.53.05,1.62.84a10.31,10.31,0,0,0,2.38.87.24.24,0,0,0,.18-.25h-.2c.11-.25.7-.21.91-.52a.86.86,0,0,1,.72,0c.24.15.4.41.7.53l.08-.11a5.9,5.9,0,0,0,.68.5c1.14-.16,2.17.78,3.27.83a15.57,15.57,0,0,0,4.41.34c0,.19.21.1.32.11v0a.85.85,0,0,0-.59.16c.28.16.63-.15.85.08l-.43.21c0,.08.14,0,.21,0-.25,0-.39.3-.66.09a19.45,19.45,0,0,1-3.17-.17l0,0a12.56,12.56,0,0,0,2.9.35c.31,0,.7-.08.95.09-.07.07-.2.14-.17.26h-.25s0,.08,0,.12l.19,0a12.86,12.86,0,0,1-3.58-.24c-.54-.07-1-.09-1.61-.18,0,0-.14,0-.13.13.63.12,1.22.1,1.84.2a8.4,8.4,0,0,1-3.4-.57c-.45-.15-1.19-.55-1.64-.19-.14.2-.45.32-.61.54s-.39,0-.49.17-.54.33-.46.7c-.21.24-.74.4-.66.77l.09.12c-.42.51-1.18.79-1.31,1.49-.05.16-.33.13-.37.32a.1.1,0,0,0-.14-.07c-.16,0-.18.19-.27.27-.15-.1,0-.22,0-.28-.29,0-.24.39-.38.59-.08-.23.15-.38.14-.61-.18,0-.22.18-.31.26s.05-.3-.11-.22c0-.28.37-.35.33-.63l-.22.11c.13-.27.29-.58.39-.84-.08,0-.35-.09-.39.16,0,0,0-.08,0-.09s-.2.2-.34.27,0-.1-.11-.08l-.08,0c.06-.1.1-.29.17-.42l-.09,0c.29-.44.56-.91.87-1.3l0-.12a.31.31,0,0,0-.43.21c.34-.2-.17-.42.15-.64a1.22,1.22,0,0,1,.22-.92c-.51-.15-.94-.68-1.44-.66-.15-.23-.27.13-.42-.1-.5.21-.94.74-1.48.47a2.26,2.26,0,0,0-.82.37,2.77,2.77,0,0,0-.1.89,2.69,2.69,0,0,0-.15.92,2.43,2.43,0,0,1-.54,1.34l0-.05c-.1.55-.82.71-1,1.33l-.08-.1a.25.25,0,0,0-.19.3l0,.05c-.22,0-.24.33-.27.47-.22.72-1,1.09-1.26,1.74,0,.05,0,0,0,0A4.16,4.16,0,0,0,37.59,60a4.6,4.6,0,0,1-.32,1c.16.19-.13.43-.18.59,0-.24.17-.52.1-.75-.17.21-.1.48-.29.71-.19,0,0-.26-.09-.32l-.21.4.1-.55c-.15.1-.18.46-.35.58s-.1.14-.21.2v0a5.76,5.76,0,0,0,.24-.66c-.24,0-.33.34-.48.38s-.11-.15-.22,0a.82.82,0,0,0,.15-.51c-.12,0-.21.17-.29.28,0-.15.19-.36,0-.54-.38.12-.15.45-.41.67.1-.55.41-1,.49-1.58l0,0a8.79,8.79,0,0,1,1.27-2.38c.41-.6,1.09-1.14,1.22-1.88a4.43,4.43,0,0,0,.13-.83c.09,0,.08-.11.08-.18a2.79,2.79,0,0,1,1.12-1.06c.11-.32.58-.39.59-.77.24-1,0-1.89.19-2.81a1.57,1.57,0,0,1,.35-1,14.24,14.24,0,0,1,2.56-.73Z"/><path class="cls-9" d="M36.09,62l-.1-.18,0-.09.08-.2a.39.39,0,0,1-.17.11h0a.27.27,0,0,1-.15-.08h.06l-.23-.13-.1.13-.07-.27a.28.28,0,0,1,0-.09.49.49,0,0,1-.17.29l-.29.26.07-.39a3.37,3.37,0,0,1,.24-.78,4.3,4.3,0,0,0,.23-.69l-.06,0,0-.13a7.9,7.9,0,0,1,1.17-2.23l.12-.18a6,6,0,0,1,.45-.58,3,3,0,0,0,.75-1.25l0-.2a3.51,3.51,0,0,0,.08-.62v-.11l.08,0h0v-.05l0,0a3,3,0,0,1,1.13-1.09A1,1,0,0,1,39.6,53c.15-.12.24-.19.25-.33A7,7,0,0,0,40,51.11,6.76,6.76,0,0,1,40,49.84l0-.15a1.38,1.38,0,0,1,.37-.92l0,0A14.86,14.86,0,0,1,43,48l.21-.22a1.55,1.55,0,0,1,1.32-.68l.05,0a1.83,1.83,0,0,0,.65.18c.43.07.92.14,1,.69a11.25,11.25,0,0,0,2,.78l.05-.13a.71.71,0,0,1,.49-.31.85.85,0,0,0,.44-.24l0,0h0a1,1,0,0,1,.84,0,2.43,2.43,0,0,1,.3.24,1.28,1.28,0,0,0,.29.23l.09-.12.11.08.28.22a2.22,2.22,0,0,0,.35.25,3.89,3.89,0,0,1,1.85.42,4.27,4.27,0,0,0,1.4.41,15.36,15.36,0,0,0,4.38.34h.13l0,.13h.07a.34.34,0,0,1,.14,0h.07l.09.19a.47.47,0,0,1,.19.11l.13.14-.44.22V51a.43.43,0,0,0-.16,0,.62.62,0,0,1,.22.1l.14.09-.12.12-.07.06-.07.07,0,.18h-.18v.15A13.28,13.28,0,0,1,56,51.58v.12h-.15a8.34,8.34,0,0,1-3.32-.58L52.26,51c-.41-.17-.92-.37-1.23-.13a1.69,1.69,0,0,1-.32.28,1,1,0,0,0-.28.24l0,0a.63.63,0,0,1-.26.05c-.1,0-.13,0-.15,0a.55.55,0,0,1-.31.43c-.14.09-.17.12-.15.21v.07l0,.05a1.76,1.76,0,0,1-.3.24c-.22.15-.35.25-.34.38l.14.18-.07.09a3.64,3.64,0,0,1-.55.49,1.64,1.64,0,0,0-.73.93.42.42,0,0,1-.26.25c-.08,0-.11.05-.12.08l-.27,0a.05.05,0,0,0,0,0h0l0,0s0,0-.08.09a.49.49,0,0,1-.11.14l-.08.07-.09,0a.41.41,0,0,1-.09-.1s0,0,0,.07a1.08,1.08,0,0,1-.11.3l-.16.23-.09-.27a.49.49,0,0,1,0-.32L46,55l-.17.08,0-.24a.6.6,0,0,1,.14-.3l-.2.09.19-.36.13-.27L46,53.77h0l-.09.11v0l-.23.09-.05-.1h0l-.41.21.23-.4a1,1,0,0,0,.07-.17l0-.1-.11,0,.1-.15.2-.33c.15-.23.29-.46.45-.68l-.26.15.06-.31a.56.56,0,0,1,.11-.2s0,0,0,0a.36.36,0,0,1,0-.43,1.2,1.2,0,0,1,.17-.79,4.08,4.08,0,0,1-.5-.29,1.48,1.48,0,0,0-.72-.32H45L45,50s0,0,0,0a.27.27,0,0,1-.3,0l-.32.18a1.21,1.21,0,0,1-1.15.26,2.14,2.14,0,0,0-.69.32,1.51,1.51,0,0,0-.06.52,2.71,2.71,0,0,1,0,.29l0,0a1.77,1.77,0,0,0-.11.59,2.64,2.64,0,0,1,0,.28v0a2.44,2.44,0,0,1-.58,1.39l0,0a1.56,1.56,0,0,1-.46.56,1.21,1.21,0,0,0-.48.62l-.07.25-.18-.2a.11.11,0,0,0,0,.08l.11.19-.19,0c-.09,0-.12.16-.15.31v.05a2.68,2.68,0,0,1-.71,1,2.73,2.73,0,0,0-.56.74l0,0a.18.18,0,0,1-.08.07l-.06,0a3.26,3.26,0,0,0-.88,1.81c0,.16-.09.32-.14.49a1.94,1.94,0,0,1-.2.66,2.6,2.6,0,0,0-.1.25c.1.19,0,.4-.12.52a.51.51,0,0,0-.08.13l-.18,0,0,0-.06.06-.08,0a.22.22,0,0,1-.11-.05l0,.06-.18,0-.08.09a.43.43,0,0,1-.26.25Zm-.15-1.2,0,.15a.68.68,0,0,1-.06.38l.05-.06a.54.54,0,0,1,.41-.28h.18l.08-.08.27-.19,0,.32h0l.05,0a1,1,0,0,1,.16-.39l.15-.2,0,.08h0a1.88,1.88,0,0,0,.18-.6c.06-.19.1-.35.14-.51a3.44,3.44,0,0,1,1.08-2.05h0a3.12,3.12,0,0,1,.57-.73,2.33,2.33,0,0,0,.64-.9v0a.66.66,0,0,1,.23-.48.38.38,0,0,1,.29-.41l.07,0a2,2,0,0,1,.48-.55,1,1,0,0,0,.42-.56l.08-.41.12.24A2.88,2.88,0,0,0,42,52.47c0-.11,0-.2,0-.29a1.89,1.89,0,0,1,.12-.67,1.93,1.93,0,0,0,0-.24,1.77,1.77,0,0,1,.1-.66l0,0,0,0a2.41,2.41,0,0,1,.88-.4h.08c.32.17.6,0,.93-.22a3.83,3.83,0,0,1,.44-.25l.11,0,.06.1h0a.26.26,0,0,1,.34,0,1.77,1.77,0,0,1,.82.36,2.57,2.57,0,0,0,.59.31l.17,0-.09.15a1.06,1.06,0,0,0-.21.81l0,.09-.08.06c-.07,0-.07.06,0,.16a.45.45,0,0,1,.28,0l.11.06-.1.27a9.64,9.64,0,0,0-.65,1,1.74,1.74,0,0,0-.11.18l.06,0-.07.14-.06.15a.31.31,0,0,1,.29-.16.43.43,0,0,1,.31-.06h.06l.33-.17-.16.36c-.06.14-.14.31-.22.47h0l0,.19a.51.51,0,0,1-.19.45l-.08.09h0a.43.43,0,0,1,.24-.08h.12v0l.1,0h.06l.05,0,0,0a.3.3,0,0,1,.14-.06.26.26,0,0,1,.15,0,.47.47,0,0,1,.17-.09s.1,0,.1-.07a1.87,1.87,0,0,1,.83-1.07,4.15,4.15,0,0,0,.44-.38L48.57,53c-.07-.34.22-.54.45-.7l.21-.15c0-.23.16-.34.28-.42s.19-.13.18-.23v0l0,0a.39.39,0,0,1,.4-.22h.12a2.08,2.08,0,0,1,.32-.27,1,1,0,0,0,.26-.23l0,0c.44-.35,1.06-.1,1.52.08l.25.09a6,6,0,0,0,1.39.41.33.33,0,0,1,.18-.16l0,0h.07a8,8,0,0,0,.94.11l.65.07a12.41,12.41,0,0,0,3.2.26.22.22,0,0,1,0-.13l.05-.06.19,0a.16.16,0,0,1,0-.07,1.47,1.47,0,0,0-.42,0h-.29l-.48,0a10.18,10.18,0,0,1-2.45-.33l-.14,0,.1-.27.56,0a17.27,17.27,0,0,0,2.7.13H59l0,0c.08.07.12.06.21,0l0-.09.13-.06a.61.61,0,0,1-.43-.06l-.15-.09.12-.12,0,0A17.05,17.05,0,0,1,54.85,50a4.66,4.66,0,0,1-1.47-.43,3.43,3.43,0,0,0-1.76-.4h0l0,0a2,2,0,0,1-.44-.3L51,48.75l-.07.09-.09-.05a1.41,1.41,0,0,1-.47-.33,2.19,2.19,0,0,0-.25-.2.67.67,0,0,0-.55,0,1.08,1.08,0,0,1-.56.31l-.1,0v.09a.37.37,0,0,1-.28.37h-.06a10,10,0,0,1-2.36-.86L46,48.19v-.07c-.05-.39-.33-.45-.81-.53a2.26,2.26,0,0,1-.73-.2h-.11c-.37,0-.66.31-.94.61l-.26.26,0,0h0a14.5,14.5,0,0,0-2.52.72,1.24,1.24,0,0,0-.26.73l0,.16a8,8,0,0,0-.06,1.22,6.27,6.27,0,0,1-.12,1.6.71.71,0,0,1-.36.51.61.61,0,0,0-.24.27l0,0,0,0a2.78,2.78,0,0,0-1.05,1,.27.27,0,0,1-.08.22c0,.19,0,.38-.08.58l0,.2a3.09,3.09,0,0,1-.81,1.38,6.41,6.41,0,0,0-.43.55l-.12.18a8.17,8.17,0,0,0-1.1,2h0l0,.12a3.36,3.36,0,0,1-.22.74h0l.06.06a.39.39,0,0,1,.12.24l0,0Zm-.48.1a.34.34,0,0,0-.05.17h0a.19.19,0,0,1,0-.07A.3.3,0,0,0,35.46,60.89ZM46.3,53.64s0,0,0,0l0,.09Z"/><polygon class="cls-1" points="50.69 48.37 50.41 48.07 50.66 48.32 50.69 48.37"/><polygon class="cls-10" points="40.99 54.16 40.98 54.13 41.06 54.09 40.99 54.16"/><path class="cls-1" d="M45.91,52.49c-.08.18-.31.39-.26.56-.25.1-.29.42-.48.52-.08-.23.31-.26.23-.49l.13-.27.07.07c0-.12.34-.2.15-.38Z"/><rect class="cls-1" x="45.88" y="53.26" width="0.09" height="0.09" transform="translate(-18.91 25.96) rotate(-26.39)"/><path class="cls-1" d="M58,50.48c-.06.1-.22,0-.31.05Z"/><polygon class="cls-1" points="56.53 51.66 56.08 51.58 56.35 51.58 56.53 51.66"/><polygon class="cls-1" points="59.22 51.34 59.22 51.27 59.33 51.28 59.22 51.34"/></g></g></svg>