<svg xmlns="http://www.w3.org/2000/svg" viewBox="0 0 71.13 26.97"><defs><style>.cls-1,.cls-2{fill:none;stroke:#fff;}.cls-1{stroke-miterlimit:10;}.cls-2{stroke-linecap:round;stroke-linejoin:round;stroke-width:7px;}.cls-3{fill:#00a19b;}</style></defs><g id="圖層_2" data-name="圖層 2"><g id="圖層_1-2" data-name="圖層 1"><path class="cls-1" d="M3.5,14.33,7,13.7a3.21,3.21,0,0,0,3.51,3.16q2.32-.08,2.46-1.83c0-.89-.54-1.54-1.62-2s-2.15-.68-3.09-.91q-4.29-.92-4.15-4.43c.28-2.63,2.18-4,5.7-4.22s5.81,1.41,6.47,4.36l-3.45.7A2.55,2.55,0,0,0,9.9,6.24c-1.36,0-2.09.54-2.18,1.48s.82,1.55,2.74,2A14.08,14.08,0,0,1,14.12,11a4.32,4.32,0,0,1,2.53,3.94q-.21,4.5-6.12,4.64T3.5,14.33Z"/><path class="cls-1" d="M19.32,16V10.67H17.56V8.14h1.76V4.34l3.38-.7v4.5h2.67v2.53H22.7v4.5c0,1.22.44,1.81,1.33,1.76a2,2,0,0,0,1-.28l.7,2.18a6,6,0,0,1-2.81.63Q19.25,19.54,19.32,16Z"/><path class="cls-1" d="M38.66,13.84v.84H30c.14,1.5,1.08,2.32,2.81,2.46,1.31,0,2.11-.44,2.39-1.33l3.66.42c-.89,2.15-2.89,3.23-6,3.23q-6-.21-6.33-5.55.29-5.84,5.91-6Q38.59,7.94,38.66,13.84Zm-8.72-1.27h5.41c-.14-1.45-1-2.25-2.67-2.39C31,10.28,30.08,11.07,29.94,12.57Z"/><path class="cls-1" d="M44,17.84v5.63H40.62V8.14H44V9.83a4.41,4.41,0,0,1,3.8-2c2.76.14,4.22,2,4.36,5.56q0,6-4.86,6A4,4,0,0,1,44,17.84Zm0-4.42v.84q.07,2.6,2.25,2.67c1.59,0,2.39-1.15,2.39-3.44,0-1.93-.8-2.91-2.25-3S44,11.49,44,13.42Z"/><path class="cls-1" d="M61.65,19.25H58.2V8.42A17.29,17.29,0,0,1,53.28,11V8A11.68,11.68,0,0,0,59,3.71h2.67Z"/><path class="cls-1" d="M67.62,19.25H64V15.74h3.65Z"/><path class="cls-2" d="M3.5,14.33,7,13.7a3.21,3.21,0,0,0,3.51,3.16q2.32-.08,2.46-1.83c0-.89-.54-1.54-1.62-2s-2.15-.68-3.09-.91q-4.29-.92-4.15-4.43c.28-2.63,2.18-4,5.7-4.22s5.81,1.41,6.47,4.36l-3.45.7A2.55,2.55,0,0,0,9.9,6.24c-1.36,0-2.09.54-2.18,1.48s.82,1.55,2.74,2A14.08,14.08,0,0,1,14.12,11a4.32,4.32,0,0,1,2.53,3.94q-.21,4.5-6.12,4.64T3.5,14.33Z"/><path class="cls-2" d="M19.32,16V10.67H17.56V8.14h1.76V4.34l3.38-.7v4.5h2.67v2.53H22.7v4.5c0,1.22.44,1.81,1.33,1.76a2,2,0,0,0,1-.28l.7,2.18a6,6,0,0,1-2.81.63Q19.25,19.54,19.32,16Z"/><path class="cls-2" d="M38.66,13.84v.84H30c.14,1.5,1.08,2.32,2.81,2.46,1.31,0,2.11-.44,2.39-1.33l3.66.42c-.89,2.15-2.89,3.23-6,3.23q-6-.21-6.33-5.55.29-5.84,5.91-6Q38.59,7.94,38.66,13.84Zm-8.72-1.27h5.41c-.14-1.45-1-2.25-2.67-2.39C31,10.28,30.08,11.07,29.94,12.57Z"/><path class="cls-2" d="M44,17.84v5.63H40.62V8.14H44V9.83a4.41,4.41,0,0,1,3.8-2c2.76.14,4.22,2,4.36,5.56q0,6-4.86,6A4,4,0,0,1,44,17.84Zm0-4.42v.84q.07,2.6,2.25,2.67c1.59,0,2.39-1.15,2.39-3.44,0-1.93-.8-2.91-2.25-3S44,11.49,44,13.42Z"/><path class="cls-2" d="M61.65,19.25H58.2V8.42A17.29,17.29,0,0,1,53.28,11V8A11.68,11.68,0,0,0,59,3.71h2.67Z"/><path class="cls-2" d="M67.62,19.25H64V15.74h3.65Z"/><path class="cls-3" d="M3.5,14.33,7,13.7a3.21,3.21,0,0,0,3.51,3.16q2.32-.08,2.46-1.83c0-.89-.54-1.54-1.62-2s-2.15-.68-3.09-.91q-4.29-.92-4.15-4.43c.28-2.63,2.18-4,5.7-4.22s5.81,1.41,6.47,4.36l-3.45.7A2.55,2.55,0,0,0,9.9,6.24c-1.36,0-2.09.54-2.18,1.48s.82,1.55,2.74,2A14.08,14.08,0,0,1,14.12,11a4.32,4.32,0,0,1,2.53,3.94q-.21,4.5-6.12,4.64T3.5,14.33Z"/><path class="cls-3" d="M19.32,16V10.67H17.56V8.14h1.76V4.34l3.38-.7v4.5h2.67v2.53H22.7v4.5c0,1.22.44,1.81,1.33,1.76a2,2,0,0,0,1-.28l.7,2.18a6,6,0,0,1-2.81.63Q19.25,19.54,19.32,16Z"/><path class="cls-3" d="M38.66,13.84v.84H30c.14,1.5,1.08,2.32,2.81,2.46,1.31,0,2.11-.44,2.39-1.33l3.66.42c-.89,2.15-2.89,3.23-6,3.23q-6-.21-6.33-5.55.29-5.84,5.91-6Q38.59,7.94,38.66,13.84Zm-8.72-1.27h5.41c-.14-1.45-1-2.25-2.67-2.39C31,10.28,30.08,11.07,29.94,12.57Z"/><path class="cls-3" d="M44,17.84v5.63H40.62V8.14H44V9.83a4.41,4.41,0,0,1,3.8-2c2.76.14,4.22,2,4.36,5.56q0,6-4.86,6A4,4,0,0,1,44,17.84Zm0-4.42v.84q.07,2.6,2.25,2.67c1.59,0,2.39-1.15,2.39-3.44,0-1.93-.8-2.91-2.25-3S44,11.49,44,13.42Z"/><path class="cls-3" d="M61.65,19.25H58.2V8.42A17.29,17.29,0,0,1,53.28,11V8A11.68,11.68,0,0,0,59,3.71h2.67Z"/><path class="cls-3" d="M67.62,19.25H64V15.74h3.65Z"/></g></g></svg>