<svg xmlns="http://www.w3.org/2000/svg" xmlns:xlink="http://www.w3.org/1999/xlink" viewBox="0 0 120.29 120.29"><defs><style>.cls-1{fill:url(#未命名漸層_216);}.cls-2{opacity:0.47;fill:url(#未命名漸層_223);}.cls-3{fill:#fff;opacity:0.81;}.cls-4{fill:#f2871c;}</style><linearGradient id="未命名漸層_216" x1="-4.51" y1="17.04" x2="160.98" y2="127.37" gradientTransform="translate(104.86 -12.21) rotate(76.72)" gradientUnits="userSpaceOnUse"><stop offset="0" stop-color="#fff"/><stop offset="1" stop-color="#fde17e"/></linearGradient><linearGradient id="未命名漸層_223" x1="11.25" y1="3.9" x2="141.73" y2="154.01" gradientUnits="userSpaceOnUse"><stop offset="0" stop-color="#fff"/><stop offset="0.9" stop-color="#e3c94b"/></linearGradient></defs><g id="圖層_2" data-name="圖層 2"><g id="圖層_1-2" data-name="圖層 1"><circle class="cls-1" cx="60.15" cy="60.15" r="60.15" transform="translate(-12.21 104.86) rotate(-76.72)"/><path class="cls-2" d="M75.22,2c29.35,26.26,18.65,88.4-32.17,88.4-21.39,0-35.63-11-42.82-25.75A60.11,60.11,0,1,0,75.22,2Z"/><path class="cls-3" d="M28.84,39.27c-4.77,9-12.29,14.3-16.8,11.9s-4.28-11.61.49-20.58,12.3-14.3,16.8-11.9S33.61,30.3,28.84,39.27Z"/><path class="cls-3" d="M45.21,22.76c-2,2.1-4.75,2.77-6.06,1.5s-.71-4,1.33-6.1,4.75-2.77,6.06-1.5S47.25,20.66,45.21,22.76Z"/><path class="cls-3" d="M25.3,64.94c-.19,5.08-2.41,9.12-5,9s-4.46-4.28-4.27-9.36,2.41-9.12,5-9S25.49,59.87,25.3,64.94Z"/><path class="cls-4" d="M45.59,35.15s0,1.41-.06,2c-.42,12.51-.81,17.34-1.86,18.81a3.64,3.64,0,0,1-2.49,1.8,15.22,15.22,0,0,1-3.51.21,11.55,11.55,0,0,0-1.17-4.35,20.77,20.77,0,0,1-2.6,4.92,12.23,12.23,0,0,0-3.36-3.21c3-4,3.84-9.48,4-15.87H31.41V35.15h3.26V30h4.41c0,1.74,0,3.48,0,5.16Zm-6.68,4.26c-.28,5.19-.84,10-2.34,14,.89.09,1.68.12,2.22.12a1.14,1.14,0,0,0,1-.6c.63-.84,1-4.35,1.33-13.53ZM58.37,33.2V57.5H53.81V55.7h-3v2H46.46V33.2ZM53.81,51.5V37.4h-3V51.5Z"/><path class="cls-4" d="M78,31.52c0,5.91.87,16.74,11.58,23A22.64,22.64,0,0,0,86,58.34,24.67,24.67,0,0,1,75.44,44.42c-2.27,6.27-5.81,11-10.65,14a30.16,30.16,0,0,0-4-3.57c6.06-3,9.57-8.7,11.1-16.32l2.15.39c-.18-1-.3-2-.39-2.94H67V31.52Z"/><path class="cls-4" d="M48.14,65l-.45.54c2.7,2.25,7.53,4.11,12.33,5a16.82,16.82,0,0,0-2.73,3.3c-.48-.12-1-.27-1.47-.42v7.83H34.5V73.56c-.51.18-1,.33-1.56.48a20.74,20.74,0,0,0-2.25-3.39C36.29,69.42,41.63,67,44.3,63.6ZM36.08,81.9H54.29V92.31h-4.5v-.6H40.38v.72h-4.3Zm17.61-9.27a28.69,28.69,0,0,1-3.24-1.44v.69H39.77V71.4c-.89.45-1.8.84-2.73,1.23Zm-14.31,6a16,16,0,0,0-.66-2.85l2-.51H38.09V78.6Zm1,6.06v.75h9.41v-.75ZM49.79,89v-.78H40.38V89ZM43.22,75.24H41.75a12.8,12.8,0,0,1,.79,2.88l-1.71.48h2.39Zm3.91-6.12c-.61-.42-1.17-.9-1.71-1.35a21.34,21.34,0,0,1-1.78,1.35Zm-.42,6.12V78.6h2l-1.53-.39a21.35,21.35,0,0,0,.9-3Zm5.27,0H49.79l1.92.42c-.54,1.11-1,2.16-1.41,2.94H52Z"/><path class="cls-4" d="M82.61,87.09c2.49.75,5.1,1.65,7,2.34l-3.87,3.06A80.23,80.23,0,0,0,75.92,89l2.76-2H71.13l2.45,1.77a39.49,39.49,0,0,1-9.33,3.57,31.35,31.35,0,0,0-3.33-3.12,35.85,35.85,0,0,0,7-2.22h-4V73.5H86.36V87.09Zm2.73-14.37h-20v-8h20ZM68.25,77.19H81.8v-.78H68.25Zm0,3.48H81.8v-.78H68.25Zm0,3.51H81.8v-.81H68.25ZM80.69,68.1h-11v1.29h11Z"/></g></g></svg>