<svg xmlns="http://www.w3.org/2000/svg" xmlns:xlink="http://www.w3.org/1999/xlink" viewBox="0 0 120.29 120.29"><defs><style>.cls-1{fill:url(#未命名漸層_207);}.cls-2{opacity:0.47;fill:url(#未命名漸層_177);}.cls-3{fill:#fff;opacity:0.81;}.cls-4{fill:#f26479;}</style><linearGradient id="未命名漸層_207" x1="-4.51" y1="17.04" x2="160.98" y2="127.37" gradientTransform="translate(104.86 -12.21) rotate(76.72)" gradientUnits="userSpaceOnUse"><stop offset="0" stop-color="#fff"/><stop offset="1" stop-color="#f08f9b"/></linearGradient><linearGradient id="未命名漸層_177" x1="11.25" y1="3.9" x2="141.73" y2="154.01" gradientUnits="userSpaceOnUse"><stop offset="0" stop-color="#fff"/><stop offset="0.9" stop-color="#e27275"/></linearGradient></defs><g id="圖層_2" data-name="圖層 2"><g id="圖層_1-2" data-name="圖層 1"><circle class="cls-1" cx="60.15" cy="60.15" r="60.15" transform="translate(-12.21 104.86) rotate(-76.72)"/><path class="cls-2" d="M75.22,2c29.35,26.26,18.65,88.4-32.17,88.4-21.39,0-35.63-11-42.82-25.75A60.11,60.11,0,1,0,75.22,2Z"/><path class="cls-3" d="M28.84,39.27c-4.77,9-12.29,14.3-16.8,11.9s-4.28-11.61.49-20.58,12.3-14.3,16.8-11.9S33.61,30.3,28.84,39.27Z"/><path class="cls-3" d="M45.21,22.76c-2,2.1-4.75,2.77-6.06,1.5s-.71-4,1.33-6.1,4.75-2.77,6.06-1.5S47.25,20.66,45.21,22.76Z"/><path class="cls-3" d="M25.3,64.94c-.19,5.08-2.41,9.12-5,9s-4.46-4.28-4.27-9.36,2.41-9.12,5-9S25.49,59.87,25.3,64.94Z"/><path class="cls-4" d="M54.35,51.41H49.64l2.88.57c-.42.81-.81,1.56-1.14,2.22h7.11v3.66H31.88V54.2h6.87a10.26,10.26,0,0,0-1-2.1l2.2-.69H35.84V44c-.87.54-1.76,1.08-2.67,1.53a16.32,16.32,0,0,0-2.67-3.24,19.72,19.72,0,0,0,4.59-2.82,23.21,23.21,0,0,0-2.84-2.22l2.33-2.4A17,17,0,0,1,37.64,37a17.42,17.42,0,0,0,1.83-2.46H32.88V31h8.7l.71-.18,2.88,1.41c-.15-.33-.27-.69-.42-1l3.9-1.17a21.69,21.69,0,0,0,1.26,2.67,22.49,22.49,0,0,0,2.55-2.49l3.27,2.31c-1.29,1.05-2.7,2.1-4,2.94.33.39.66.78,1,1.14a26.67,26.67,0,0,0,3.09-2.91L59,35.93c-1.2,1-2.55,2.1-3.78,3A20,20,0,0,0,60,41.6a17.05,17.05,0,0,0-3,3.72,19.52,19.52,0,0,1-2.7-1.5Zm-14.15-11a25.91,25.91,0,0,1-2.53,2.28H52.73a20.9,20.9,0,0,1-2.25-2.07v.78H40.2Zm0,5.7V48h9.39V46.07Zm6.81,8.13a21.83,21.83,0,0,0,1.14-2.79H42.08a9.08,9.08,0,0,1,1.05,2.37l-1.22.42ZM48.2,37.76a32.91,32.91,0,0,1-3-5.43,22.64,22.64,0,0,1-2.86,5.43Z"/><path class="cls-4" d="M86.93,56.45a55.35,55.35,0,0,0-4.53-3.84v1.86c0,1.74-.24,2.73-1.35,3.33a8.73,8.73,0,0,1-4.13.66,13,13,0,0,0-1.12-3.63c-.72.57-1.41,1.14-2.07,1.65l-2-2.73.13,2c-3.55.72-7.3,1.41-10.23,2l-.84-3.9c1.19-.12,2.67-.3,4.26-.54v-7H61.32V42.65h3.75V41.06h-1.9V39.74c-.44.45-.89.84-1.34,1.23a23,23,0,0,0-1.23-4.35,21,21,0,0,0,5.52-6.9L69.33,31c-.12.27-.28.57-.42.84,1.67,1.56,3.72,3.45,4.76,4.65l-2.42,2.82a12.48,12.48,0,0,0-.91-1.08v2.88h-1.8v1.59h3.34v3.66H68.54v6.54l3.13-.45,0,.6c1.74-1,4.27-2.76,6.72-4.5v-4H75.35a29.37,29.37,0,0,1,2.91,3.36L75.11,50a28.16,28.16,0,0,0-3-3.87l2.55-1.62H72.29V40.73h9.18l.18-.81H73.17a100.25,100.25,0,0,0,2.51-10l4,.42-.45,2h4.2l.66-.15,3,.39c-.39,2.67-1,5.58-1.53,8.13h3.63v3.78H85.73l3.09,1.71c-1.32,1.41-2.64,2.85-3.75,3.93,1.71,1.26,3.39,2.52,4.44,3.45Zm-23.1-9.72a38.19,38.19,0,0,1,1.09,4.92L62,52.49a40.11,40.11,0,0,0-.92-5Zm5.85-9.27c-.77-.84-1.68-1.77-2.55-2.64a28.61,28.61,0,0,1-1.92,2.64Zm-.75,14a40.66,40.66,0,0,0,.87-4.83l2.7.63c-.5,1.68-1,3.57-1.41,4.77Zm9.48,1.23c-.87.72-1.7,1.41-2.55,2.07.85,0,1.81,0,2.1,0s.45-.09.45-.39Zm3.9-16,.21-1.08H78.44l-.27,1.08Zm.09,7.83v3.72l.12.09a28,28,0,0,0,2.64-3.81Z"/><path class="cls-4" d="M36.66,76.62V92.43H32.33V65H44.27V76.62Zm0-8.34v1.08H40.2V68.28Zm3.54,5.07V72.24H36.66v1.11Zm18,14c0,2.31-.45,3.51-1.83,4.23s-3.36.81-6.21.81a15.69,15.69,0,0,0-1.38-4.26H43.13v1.65h-4V78.33H51v9.75H53c.57,0,.78-.21.78-.75V76.65H45.92V65H58.16ZM46.94,81.87H43.13v2.76h3.81Zm3.12-13.62v1.11h3.69V68.25Zm3.69,5.16V72.24H50.06v1.17Z"/><path class="cls-4" d="M83.39,77.25a18.84,18.84,0,0,0,6.48,2.91,16.86,16.86,0,0,0-2.79,3.57,18.6,18.6,0,0,1-5.28-2.67c-.24,3-.6,4.53-1.29,5.25a3.7,3.7,0,0,1-2.43,1,28.25,28.25,0,0,1-3.72.06,8.46,8.46,0,0,0-1-3.24c1,.09,2,.12,2.54.12a1.2,1.2,0,0,0,.9-.27,2.26,2.26,0,0,0,.42-1.14H71v3.93c0,1.26.4,1.41,2.76,1.41h6.51c2,0,2.25-.45,2.52-3.36a13.69,13.69,0,0,0,4,1.5c-.6,4.53-1.86,5.7-6.21,5.7H73.43c-5.18,0-6.72-1.11-6.72-5.19V82.2a27.32,27.32,0,0,1-3.29,1.68,11.13,11.13,0,0,0-2.64-3.66,23.25,23.25,0,0,0,5.51-3H61.65V73.44h8.48c.39-.57.79-1.14,1.12-1.74H63.48V68h3.69a19.14,19.14,0,0,0-1.45-2l3.36-1.8a16.69,16.69,0,0,1,2.46,3.36l-.87.48H72.8a24,24,0,0,0,.87-4.26l4.56.45A31.86,31.86,0,0,1,77.39,68h2.16a22.62,22.62,0,0,0,1.8-3.63l4.05,1.2c-.51.84-1.05,1.68-1.56,2.43h3V71.7H76.07a18.56,18.56,0,0,1-.84,1.74H88.67v3.81Zm-3.84,1.92a19.31,19.31,0,0,1-1.67-1.92H72.63a18.42,18.42,0,0,1-1.84,1.92Z"/></g></g></svg>