<svg xmlns="http://www.w3.org/2000/svg" viewBox="0 0 287.03 32.95"><defs><style>.cls-1{fill:#00a19b;}.cls-2{fill:#00c08b;}.cls-3{fill:#009ae5;}.cls-4{fill:#ffbb17;}.cls-5{fill:#ff8f00;}.cls-6{fill:#e34848;}</style></defs><g id="圖層_2" data-name="圖層 2"><g id="圖層_1-2" data-name="圖層 1"><path class="cls-1" d="M16.71,1.17c-.15.18-.3.39-.45.57C19,4.13,23.93,6.2,28.69,7.13a12.4,12.4,0,0,0-2.24,2.72c-.6-.15-1.23-.36-1.86-.54V17H3.77V9.49c-.62.21-1.25.42-1.85.57A19.07,19.07,0,0,0,0,7.31C5.51,6,10.84,3.53,13.57.06Zm6.8,7.75A31.56,31.56,0,0,1,19.44,7.1v.78H8.92v-.6A33,33,0,0,1,5.3,8.92ZM5.45,18H23.06V28.15H19.41v-.71H9v.8H5.45Zm3.39-3.15a11.9,11.9,0,0,0-1-3.11l2.3-.66H6.74v3.77ZM9,20.36v1.2H19.41v-1.2ZM19.41,25.1V23.9H9v1.2Zm-6.8-14H10.27a13.57,13.57,0,0,1,1.2,3.18l-1.91.59h3Zm4.31-5.54a29.11,29.11,0,0,1-2.51-1.95c-.78.66-1.65,1.32-2.55,2Zm-1.44,5.54v3.77h2.79l-1.8-.5a23.47,23.47,0,0,0,1.17-3.27Zm5.93,0H18.3l2.34.57c-.6,1.2-1.17,2.37-1.65,3.2h2.42Z"/><path class="cls-1" d="M50.34,23.09c2.79.84,5.84,1.92,7.91,2.73L55.1,28.33a79.54,79.54,0,0,0-9.61-3.47L48,23.09H39.86l2.27,1.59a39.63,39.63,0,0,1-9.28,3.59,31.29,31.29,0,0,0-2.7-2.54,36.35,36.35,0,0,0,7.67-2.64H33.18V9.82H55.07V23.09ZM54,8.71H34.53V1.23H54ZM36.71,13.54H51.39V12.25H36.71Zm0,3.53H51.39V15.78H36.71Zm0,3.6H51.39V19.35H36.71ZM50.22,4H38.12V6h12.1Z"/><path class="cls-1" d="M71.39,2.66c-.78,2.52-1.77,5.55-2.58,7.85A9.73,9.73,0,0,1,71,16.74c0,1.92-.39,3.21-1.35,3.93a3.62,3.62,0,0,1-1.67.65,11,11,0,0,1-2,.07,7.23,7.23,0,0,0-.78-3.06,9.85,9.85,0,0,0,1.29,0,1.24,1.24,0,0,0,.81-.24,2.27,2.27,0,0,0,.54-1.77,8.44,8.44,0,0,0-2.1-5.48C66.33,9,67,6.62,67.47,4.64H64.56V28.21H61.45V1.47h7.13l.47-.15Zm16.14,15.4c-1.28,1-2.84,2.16-4.19,3a12.49,12.49,0,0,0,4.85,4,12.92,12.92,0,0,0-2.36,3.08c-4.47-2.45-6.86-7.07-8.27-12.94h-1.8v8.42l4.17-.93A21.55,21.55,0,0,0,80.08,26c-5.84,1.5-7,1.94-7.67,2.39a11.35,11.35,0,0,0-1.53-2.78A3,3,0,0,0,72.26,23V1.5H85.8V15.24H80.62a22.1,22.1,0,0,0,1.19,3.27,29,29,0,0,0,3.42-3ZM75.76,4.55V6.89h6.59V4.55Zm0,7.61h6.59V9.76H75.76Z"/><path class="cls-1" d="M105.86,24.08a26.28,26.28,0,0,0,3.53.21c1.59,0,6.53,0,8.57-.06a11.8,11.8,0,0,0-1.29,3.62h-7.46c-5.6,0-9.7-.93-12.43-5.27a15.16,15.16,0,0,1-4,5.75A17.86,17.86,0,0,0,89.87,26c3.23-2.43,4.73-6.59,5.27-11.68l3.62.33c-.15,1.25-.39,2.48-.63,3.62a8.2,8.2,0,0,0,4,4.79V12.88H95.77V9.46h16.47v3.42h-6.38v3.53h8.21v3.36h-8.21ZM94.72,11H91.21V3.47h11.11a24.87,24.87,0,0,0-1-2.48l3.59-1a19,19,0,0,1,1.56,3.47h10.39V11h-3.68V6.83H94.72Z"/><path class="cls-2" d="M120.29,17.31c0-5.45,3.8-8.84,7.82-8.84,4.61,0,7,3.39,7,8a8.29,8.29,0,0,1-.2,2H124.57a4.4,4.4,0,0,0,4.64,4.19A6.92,6.92,0,0,0,133,21.53l1.5,2.7a10.59,10.59,0,0,1-5.87,1.86C123.94,26.09,120.29,22.82,120.29,17.31Zm11-1.71c0-2.27-1-3.71-3.17-3.71-1.77,0-3.33,1.26-3.66,3.71Z"/><path class="cls-2" d="M138.49,23.21a2.75,2.75,0,1,1,5.49,0,2.75,2.75,0,1,1-5.49,0Z"/><path class="cls-3" d="M148.83,3.5h13.65V7.19h-9.22V13h7.88v3.71h-7.88v9h-4.43Z"/><path class="cls-2" d="M165.56,3.8a2.64,2.64,0,0,1,5.25,0,2.64,2.64,0,0,1-5.25,0ZM166,8.9h4.38V25.67H166Z"/><path class="cls-4" d="M175.09,8.9h3.59l.3,2.21h.12a7.74,7.74,0,0,1,5.45-2.64c3.63,0,5.18,2.52,5.18,6.75V25.67h-4.4V15.75c0-2.57-.72-3.5-2.37-3.5-1.37,0-2.24.66-3.5,1.89V25.67h-4.37Z"/><path class="cls-5" d="M193.17,28.63a4.08,4.08,0,0,1,2.4-3.47V25A3.18,3.18,0,0,1,194,22.19a4.17,4.17,0,0,1,1.86-3.14v-.12a5.55,5.55,0,0,1-2.22-4.38c0-4,3.21-6.08,6.77-6.08A7.89,7.89,0,0,1,203,8.9H209v3.23h-2.88a4.22,4.22,0,0,1,.78,2.54c0,3.78-2.88,5.69-6.47,5.69a7.13,7.13,0,0,1-2.16-.38,1.65,1.65,0,0,0-.71,1.43c0,.9.65,1.38,2.63,1.38h2.85c4,0,6.23,1.26,6.23,4.2,0,3.38-3.51,6-9.11,6C196.23,33,193.17,31.6,193.17,28.63Zm11.92-.9c0-1.19-1-1.49-2.78-1.49h-2a9.48,9.48,0,0,1-2.34-.24,2.52,2.52,0,0,0-1.1,1.94c0,1.41,1.55,2.22,4,2.22S205.09,29.05,205.09,27.73Zm-2-13.18c0-2-1.11-3.08-2.61-3.08s-2.64,1.11-2.64,3.08,1.17,3.09,2.64,3.09S203.06,16.53,203.06,14.55Z"/><path class="cls-6" d="M210.54,17.31c0-5.6,3.87-8.84,8.06-8.84s8.06,3.24,8.06,8.84-3.87,8.78-8.06,8.78S210.54,22.85,210.54,17.31Zm11.62,0c0-3.17-1.29-5.24-3.56-5.24S215,14.14,215,17.31s1.29,5.18,3.57,5.18S222.16,20.46,222.16,17.31Z"/><path class="cls-1" d="M228.69,27.08a10.79,10.79,0,0,0,2-5.31l2.4.72c-.36,2.13-.87,4.4-2.13,5.78Zm.66-9c1.49,0,3.32-.09,5.33-.15V16.5h-4.62V13.81h4.62V12.49H230V1.2h12.66V12.49h-4.85v1.32h4.79V16.5h-4.79v1.32l5.27-.21L243,20.36c-4.85.31-10,.58-13.59.72Zm3.32-8h2.52V3.59h-2.52V4.85l1.41-.42a19.54,19.54,0,0,1,1,4.31l-1.59.48a19.07,19.07,0,0,0-.78-4.16Zm2.85,11.59a30.11,30.11,0,0,1,.62,5.24l-2.3.28a25.63,25.63,0,0,0-.51-5.25Zm2.93-.27a27.16,27.16,0,0,1,1.29,5l-2.19.45a25.3,25.3,0,0,0-1.23-5Zm1.47-17.82h-2.58V8.54a30.39,30.39,0,0,0,1.14-4.14l1.44.51Zm0,6.5V5.84c-.48,1.26-1,2.55-1.35,3.42l-1.23-.45v1.28Zm1.44,10.7a19.22,19.22,0,0,1,2.3,4.64l-2.24.93a20.92,20.92,0,0,0-2.19-4.8Zm9.76-11v4.62h4.79V28.12H252.5v-1H247v1.16h-3.24V14.38h3.93V.33h3.47V6.47h5.78V9.76Zm1.38,7.85H247v6.26h5.54Z"/><path class="cls-1" d="M284.87,8.86a40.76,40.76,0,0,1-2.58,11.3,12.83,12.83,0,0,0,4.74,5.3,9.47,9.47,0,0,0-2,2.42,14.22,14.22,0,0,1-4.34-4.73,17.1,17.1,0,0,1-5.37,5.3A11,11,0,0,0,274,26.3l-1.92,1.64a32.61,32.61,0,0,0-3.86-2.06,31.37,31.37,0,0,1-8.39,2.21,9.44,9.44,0,0,0-1.29-2.27,35.41,35.41,0,0,0,6.32-1.35,42.07,42.07,0,0,0-4-1.38,14.6,14.6,0,0,0,1.32-1.74l-2.7.16-.27-2.37c1.32-.06,2.88-.12,4.61-.21a19.41,19.41,0,0,0,1.05-1.86h-4.4V11.65h5.36v-.84h-4.55V7.67H259V5.15h2.28v-3h4.55V.3h2.7V2.13h4.82v3h2V7.67h-2v3.14h-4.82v.84H274v2.19c2-3.21,3-8.3,3.5-13.45l3,.39c-.21,1.68-.45,3.35-.78,5h7.1V8.86Zm-21.51,6.05h2.46v-1.1h-2.46Zm.84-10.54v1h1.62v-1Zm1.62,4.2V7.49H264.2V8.57ZM265,22c1,.33,2,.69,3,1.08a5.29,5.29,0,0,0,2.09-2.12l-4.55.23Zm8.15-1.22a6.42,6.42,0,0,1-2.28,3.53c1.08.48,2,1,2.88,1.38A13.36,13.36,0,0,0,279.09,20a42.82,42.82,0,0,1-1.77-6,15.45,15.45,0,0,1-1.14,2.18A18.68,18.68,0,0,0,274,14v3.08h-6c-.3.57-.63,1.14-1,1.74l3.5-.18V17.58h2.79v.93l1-.06,0,2.25ZM268.52,4.37v1h1.73v-1Zm1.73,4.2V7.49h-1.73V8.57Zm-1.73,5.24v1.1h2.39v-1.1Zm10.54-5a49.49,49.49,0,0,0,1.53,7.19,39.42,39.42,0,0,0,1.28-7.19Z"/></g></g></svg>