<svg xmlns="http://www.w3.org/2000/svg" viewBox="0 0 73.8 27.04"><defs><style>.cls-1,.cls-2{fill:none;stroke:#fff;}.cls-1{stroke-miterlimit:10;}.cls-2{stroke-linecap:round;stroke-linejoin:round;stroke-width:7px;}.cls-3{fill:#00a19b;}</style></defs><g id="圖層_2" data-name="圖層 2"><g id="圖層_1-2" data-name="圖層 1"><path class="cls-1" d="M3.5,14.4,7,13.77a3.21,3.21,0,0,0,3.51,3.16q2.32-.08,2.46-1.83a2.11,2.11,0,0,0-1.62-2c-1.12-.37-2.15-.68-3.09-.91q-4.29-.92-4.15-4.43c.28-2.63,2.18-4,5.7-4.22S15.57,5,16.23,7.93l-3.45.7A2.55,2.55,0,0,0,9.9,6.31c-1.36.05-2.09.54-2.18,1.48s.82,1.55,2.74,2A14.08,14.08,0,0,1,14.12,11,4.32,4.32,0,0,1,16.65,15q-.21,4.5-6.12,4.64T3.5,14.4Z"/><path class="cls-1" d="M19.32,16.09V10.74H17.56V8.21h1.76V4.41l3.38-.7v4.5h2.67v2.53H22.7v4.5c0,1.22.44,1.81,1.33,1.76a2,2,0,0,0,1-.28l.7,2.18a6,6,0,0,1-2.81.63Q19.25,19.6,19.32,16.09Z"/><path class="cls-1" d="M38.66,13.91v.84H30c.14,1.5,1.08,2.32,2.81,2.46,1.31,0,2.11-.44,2.39-1.33l3.66.42c-.89,2.15-2.89,3.23-6,3.23q-6-.21-6.33-5.55.29-5.84,5.91-6.05Q38.59,8,38.66,13.91Zm-8.72-1.27h5.41c-.14-1.45-1-2.25-2.67-2.39C31,10.34,30.08,11.14,29.94,12.64Z"/><path class="cls-1" d="M44,17.91v5.63H40.62V8.21H44V9.9a4.41,4.41,0,0,1,3.8-2c2.76.14,4.22,2,4.36,5.55,0,4-1.62,6.05-4.86,6.05A4,4,0,0,1,44,17.91Zm0-4.43v.85q.07,2.59,2.25,2.67c1.59,0,2.39-1.15,2.39-3.45,0-1.92-.8-2.9-2.25-3S44,11.56,44,13.48Z"/><path class="cls-1" d="M53.49,15.52l3.52-.7a2.37,2.37,0,0,0,2.6,2.25,2,2,0,0,0,2.25-2.18c0-1.45-1.08-2.18-3.38-2.18h-1.4v-2.6h1.33c2.07,0,3.1-.68,3.1-2a1.79,1.79,0,0,0-2-2,2.59,2.59,0,0,0-2.46,2.25l-3.31-.63c.66-2.77,2.68-4.17,6-4.22S64.79,5,65,7.58q.08,2.88-3.3,3.65v.07a3.93,3.93,0,0,1,3.66,3.8q-.28,4.29-6,4.43Q54.62,19.81,53.49,15.52Z"/><path class="cls-1" d="M70.3,19.32H66.64V15.8H70.3Z"/><path class="cls-2" d="M3.5,14.4,7,13.77a3.21,3.21,0,0,0,3.51,3.16q2.32-.08,2.46-1.83a2.11,2.11,0,0,0-1.62-2c-1.12-.37-2.15-.68-3.09-.91q-4.29-.92-4.15-4.43c.28-2.63,2.18-4,5.7-4.22S15.57,5,16.23,7.93l-3.45.7A2.55,2.55,0,0,0,9.9,6.31c-1.36.05-2.09.54-2.18,1.48s.82,1.55,2.74,2A14.08,14.08,0,0,1,14.12,11,4.32,4.32,0,0,1,16.65,15q-.21,4.5-6.12,4.64T3.5,14.4Z"/><path class="cls-2" d="M19.32,16.09V10.74H17.56V8.21h1.76V4.41l3.38-.7v4.5h2.67v2.53H22.7v4.5c0,1.22.44,1.81,1.33,1.76a2,2,0,0,0,1-.28l.7,2.18a6,6,0,0,1-2.81.63Q19.25,19.6,19.32,16.09Z"/><path class="cls-2" d="M38.66,13.91v.84H30c.14,1.5,1.08,2.32,2.81,2.46,1.31,0,2.11-.44,2.39-1.33l3.66.42c-.89,2.15-2.89,3.23-6,3.23q-6-.21-6.33-5.55.29-5.84,5.91-6.05Q38.59,8,38.66,13.91Zm-8.72-1.27h5.41c-.14-1.45-1-2.25-2.67-2.39C31,10.34,30.08,11.14,29.94,12.64Z"/><path class="cls-2" d="M44,17.91v5.63H40.62V8.21H44V9.9a4.41,4.41,0,0,1,3.8-2c2.76.14,4.22,2,4.36,5.55,0,4-1.62,6.05-4.86,6.05A4,4,0,0,1,44,17.91Zm0-4.43v.85q.07,2.59,2.25,2.67c1.59,0,2.39-1.15,2.39-3.45,0-1.92-.8-2.9-2.25-3S44,11.56,44,13.48Z"/><path class="cls-2" d="M53.49,15.52l3.52-.7a2.37,2.37,0,0,0,2.6,2.25,2,2,0,0,0,2.25-2.18c0-1.45-1.08-2.18-3.38-2.18h-1.4v-2.6h1.33c2.07,0,3.1-.68,3.1-2a1.79,1.79,0,0,0-2-2,2.59,2.59,0,0,0-2.46,2.25l-3.31-.63c.66-2.77,2.68-4.17,6-4.22S64.79,5,65,7.58q.08,2.88-3.3,3.65v.07a3.93,3.93,0,0,1,3.66,3.8q-.28,4.29-6,4.43Q54.62,19.81,53.49,15.52Z"/><path class="cls-2" d="M70.3,19.32H66.64V15.8H70.3Z"/><path class="cls-3" d="M3.5,14.4,7,13.77a3.21,3.21,0,0,0,3.51,3.16q2.32-.08,2.46-1.83a2.11,2.11,0,0,0-1.62-2c-1.12-.37-2.15-.68-3.09-.91q-4.29-.92-4.15-4.43c.28-2.63,2.18-4,5.7-4.22S15.57,5,16.23,7.93l-3.45.7A2.55,2.55,0,0,0,9.9,6.31c-1.36.05-2.09.54-2.18,1.48s.82,1.55,2.74,2A14.08,14.08,0,0,1,14.12,11,4.32,4.32,0,0,1,16.65,15q-.21,4.5-6.12,4.64T3.5,14.4Z"/><path class="cls-3" d="M19.32,16.09V10.74H17.56V8.21h1.76V4.41l3.38-.7v4.5h2.67v2.53H22.7v4.5c0,1.22.44,1.81,1.33,1.76a2,2,0,0,0,1-.28l.7,2.18a6,6,0,0,1-2.81.63Q19.25,19.6,19.32,16.09Z"/><path class="cls-3" d="M38.66,13.91v.84H30c.14,1.5,1.08,2.32,2.81,2.46,1.31,0,2.11-.44,2.39-1.33l3.66.42c-.89,2.15-2.89,3.23-6,3.23q-6-.21-6.33-5.55.29-5.84,5.91-6.05Q38.59,8,38.66,13.91Zm-8.72-1.27h5.41c-.14-1.45-1-2.25-2.67-2.39C31,10.34,30.08,11.14,29.94,12.64Z"/><path class="cls-3" d="M44,17.91v5.63H40.62V8.21H44V9.9a4.41,4.41,0,0,1,3.8-2c2.76.14,4.22,2,4.36,5.55,0,4-1.62,6.05-4.86,6.05A4,4,0,0,1,44,17.91Zm0-4.43v.85q.07,2.59,2.25,2.67c1.59,0,2.39-1.15,2.39-3.45,0-1.92-.8-2.9-2.25-3S44,11.56,44,13.48Z"/><path class="cls-3" d="M53.49,15.52l3.52-.7a2.37,2.37,0,0,0,2.6,2.25,2,2,0,0,0,2.25-2.18c0-1.45-1.08-2.18-3.38-2.18h-1.4v-2.6h1.33c2.07,0,3.1-.68,3.1-2a1.79,1.79,0,0,0-2-2,2.59,2.59,0,0,0-2.46,2.25l-3.31-.63c.66-2.77,2.68-4.17,6-4.22S64.79,5,65,7.58q.08,2.88-3.3,3.65v.07a3.93,3.93,0,0,1,3.66,3.8q-.28,4.29-6,4.43Q54.62,19.81,53.49,15.52Z"/><path class="cls-3" d="M70.3,19.32H66.64V15.8H70.3Z"/></g></g></svg>