<svg xmlns="http://www.w3.org/2000/svg" viewBox="0 0 164.47 91.15"><defs><style>.cls-1{fill:#54565a;}.cls-2{fill:#009ae5;}.cls-3{fill:#ffbb17;}.cls-4{fill:#e34848;}.cls-5{fill:#00c08b;}.cls-6{fill:#ff8f00;}.cls-7{fill:#00a19b;}.cls-8{fill:#fcf9de;}</style></defs><g id="圖層_2" data-name="圖層 2"><g id="圖層_1-2" data-name="圖層 1"><path class="cls-1" d="M132.17.07V1.52h0a1,1,0,0,1,.14-.24.87.87,0,0,1,.21-.17,1.19,1.19,0,0,1,.26-.11,1.24,1.24,0,0,1,.27,0,1.12,1.12,0,0,1,.5.11,1,1,0,0,1,.36.29,1.38,1.38,0,0,1,.21.42,2.25,2.25,0,0,1,.07.52,2.09,2.09,0,0,1-.07.51,1.38,1.38,0,0,1-.21.42.93.93,0,0,1-.36.29,1.17,1.17,0,0,1-1.05,0,.83.83,0,0,1-.35-.41h0v.48h-.28V.07Zm1.67,1.85a1.22,1.22,0,0,0-.14-.35,1,1,0,0,0-.26-.25.76.76,0,0,0-.38-.09.78.78,0,0,0-.69.34,1,1,0,0,0-.15.35,1.74,1.74,0,0,0-.05.39,1.74,1.74,0,0,0,.05.39,1,1,0,0,0,.15.34.78.78,0,0,0,.69.34.76.76,0,0,0,.38-.09A1,1,0,0,0,133.7,3a1.28,1.28,0,0,0,.14-.34,1.74,1.74,0,0,0,0-.39A1.74,1.74,0,0,0,133.84,1.92Z"/><path class="cls-1" d="M134.72,1l.83,2.16L136.33,1h.31L135.54,4a1.78,1.78,0,0,1-.12.27,1.26,1.26,0,0,1-.13.17.38.38,0,0,1-.17.08.78.78,0,0,1-.24,0h-.24V4.22h.21a.4.4,0,0,0,.17,0,.5.5,0,0,0,.12-.08.5.5,0,0,0,.08-.12s.05-.11.07-.17l.11-.28-1-2.52Z"/><path class="cls-1" d="M140.78.07V.36H138.7V1.62h2V1.9h-2V3.29h2.1v.28h-2.44V.07Z"/><path class="cls-1" d="M141.39,3.05h.41v.52h-.41Z"/><path class="cls-1" d="M142.87,2.87a.76.76,0,0,0,.24.29,1.11,1.11,0,0,0,.37.15,2.14,2.14,0,0,0,.45,0,1.13,1.13,0,0,0,.3,0,1.88,1.88,0,0,0,.3-.12.84.84,0,0,0,.23-.23.53.53,0,0,0,.09-.32.55.55,0,0,0-.06-.26.73.73,0,0,0-.17-.18.9.9,0,0,0-.24-.12L144.13,2l-.78-.19-.29-.1a.72.72,0,0,1-.25-.16.63.63,0,0,1-.18-.24.88.88,0,0,1-.06-.35.84.84,0,0,1,.05-.29.77.77,0,0,1,.18-.33,1,1,0,0,1,.37-.25,1.5,1.5,0,0,1,.6-.11,1.68,1.68,0,0,1,.5.07,1.2,1.2,0,0,1,.41.2,1.3,1.3,0,0,1,.28.34,1.06,1.06,0,0,1,.1.48h-.33a.9.9,0,0,0-.09-.35.64.64,0,0,0-.21-.25.85.85,0,0,0-.3-.15,1,1,0,0,0-.35-.06,1.66,1.66,0,0,0-.33,0,.79.79,0,0,0-.28.12.58.58,0,0,0-.2.21.67.67,0,0,0-.07.33.46.46,0,0,0,0,.21.61.61,0,0,0,.12.16.62.62,0,0,0,.16.1.83.83,0,0,0,.21.06l.85.21.35.12a1.19,1.19,0,0,1,.29.18.86.86,0,0,1,.2.26,1,1,0,0,1,.07.36,1.15,1.15,0,0,1,0,.16.54.54,0,0,1,0,.21,1.35,1.35,0,0,1-.14.22.79.79,0,0,1-.23.21,1.43,1.43,0,0,1-.37.14,2.09,2.09,0,0,1-.53.06,2.47,2.47,0,0,1-.57-.07,1.18,1.18,0,0,1-.45-.22.92.92,0,0,1-.29-.38,1.18,1.18,0,0,1-.09-.55h.34A.89.89,0,0,0,142.87,2.87Z"/><path class="cls-1" d="M146,.07V2.24a1.85,1.85,0,0,0,.07.51.85.85,0,0,0,.2.35.79.79,0,0,0,.33.2,1.57,1.57,0,0,0,.86,0,.79.79,0,0,0,.33-.2,1,1,0,0,0,.2-.35,1.85,1.85,0,0,0,.07-.51V.07h.33V2.31a1.7,1.7,0,0,1-.08.51,1.14,1.14,0,0,1-.24.43,1.15,1.15,0,0,1-.42.28,1.8,1.8,0,0,1-1.24,0,1.15,1.15,0,0,1-.42-.28,1.14,1.14,0,0,1-.24-.43,1.7,1.7,0,0,1-.08-.51V.07Z"/><path class="cls-1" d="M149.44.07l2,3h0v-3h.34v3.5h-.38l-2-3h0v3h-.34V.07Z"/><path class="cls-1" d="M155.36.07a1.93,1.93,0,0,1,.42,0,.82.82,0,0,1,.36.14.78.78,0,0,1,.25.26.88.88,0,0,1,0,.68.72.72,0,0,1-.12.23.81.81,0,0,1-.19.18.69.69,0,0,1-.25.1h0a.84.84,0,0,1,.54.28.89.89,0,0,1,.2.58,1.21,1.21,0,0,1,0,.18.9.9,0,0,1-.06.22.85.85,0,0,1-.13.22,1,1,0,0,1-.22.19,2,2,0,0,1-.35.13,2.14,2.14,0,0,1-.48,0h-1.48V.07Zm0,1.54a1.11,1.11,0,0,0,.34-.05.66.66,0,0,0,.25-.13.58.58,0,0,0,.15-.19.56.56,0,0,0,.05-.23c0-.43-.27-.65-.79-.65h-1.15V1.61Zm0,1.68a1.34,1.34,0,0,0,.35,0,.83.83,0,0,0,.29-.11.53.53,0,0,0,.2-.22.75.75,0,0,0,.08-.35.58.58,0,0,0-.24-.51,1.2,1.2,0,0,0-.68-.17h-1.15v1.4Z"/><path class="cls-1" d="M157.15,1.43a.75.75,0,0,1,.21-.26.86.86,0,0,1,.32-.15,1.62,1.62,0,0,1,.4-.05,1.84,1.84,0,0,1,.33,0,.79.79,0,0,1,.3.12.67.67,0,0,1,.22.25.93.93,0,0,1,.08.41V3.12c0,.13.06.19.18.19l.1,0v.26l-.1,0h-.1a.5.5,0,0,1-.19,0,.24.24,0,0,1-.11-.09.34.34,0,0,1,0-.14,1.09,1.09,0,0,1,0-.18h0l-.17.22-.19.16a.85.85,0,0,1-.24.09,1,1,0,0,1-.32,0,1.66,1.66,0,0,1-.33,0,.58.58,0,0,1-.27-.14.62.62,0,0,1-.19-.23A.81.81,0,0,1,157,2.9a.65.65,0,0,1,.12-.41.67.67,0,0,1,.31-.23,1.8,1.8,0,0,1,.43-.11l.5-.06.17,0a.33.33,0,0,0,.12,0,.21.21,0,0,0,.07-.11.35.35,0,0,0,0-.16.63.63,0,0,0,0-.26.36.36,0,0,0-.14-.16.66.66,0,0,0-.21-.08l-.26,0a.78.78,0,0,0-.48.14.56.56,0,0,0-.2.45h-.3A1.12,1.12,0,0,1,157.15,1.43Zm1.54.76a.24.24,0,0,1-.11.08l-.15,0-.4.06-.38.08a.69.69,0,0,0-.28.16.33.33,0,0,0-.11.28.46.46,0,0,0,0,.21.51.51,0,0,0,.13.16.52.52,0,0,0,.18.1.76.76,0,0,0,.21,0,1,1,0,0,0,.34,0,.85.85,0,0,0,.28-.16.79.79,0,0,0,.19-.25.7.7,0,0,0,.07-.33v-.4Z"/><path class="cls-1" d="M159.93,1v.44h0a.74.74,0,0,1,.31-.37,1,1,0,0,1,.5-.14,1.16,1.16,0,0,1,.44.07.67.67,0,0,1,.29.19.75.75,0,0,1,.15.31,1.64,1.64,0,0,1,0,.4V3.57h-.3V2a1.45,1.45,0,0,0,0-.3.66.66,0,0,0-.11-.24.49.49,0,0,0-.19-.16.76.76,0,0,0-.32-.06.72.72,0,0,0-.33.07.69.69,0,0,0-.24.18.72.72,0,0,0-.16.27,1,1,0,0,0-.06.35V3.57h-.31V1Z"/><path class="cls-1" d="M162.57.07v2.2L164,1h.41L163.3,2l1.15,1.59h-.39l-1-1.38-.49.42v1h-.31V.07Z"/><rect class="cls-2" x="95.08" y="8.57" width="8.98" height="4.08" rx="0.82"/><path class="cls-3" d="M128.74,14.28v0h0a7.15,7.15,0,0,0-7.14-7.12,7,7,0,0,0-3.07.7.82.82,0,0,0-.8-.7h-2.45a.82.82,0,0,0-.82.82V21.63a.82.82,0,0,0,.82.81h2.45a.81.81,0,0,0,.81-.81V14.28h0a3.06,3.06,0,0,1,6.12,0v7.37a.82.82,0,0,0,.82.82h2.45a.82.82,0,0,0,.81-.82V14.28Z"/><path class="cls-4" d="M156.8,7.14a7.65,7.65,0,1,0,7.65,7.65A7.66,7.66,0,0,0,156.8,7.14Zm0,11.22a3.57,3.57,0,1,1,3.57-3.57A3.57,3.57,0,0,1,156.8,18.36Z"/><rect class="cls-5" x="107.32" y="7.14" width="4.08" height="15.3" rx="0.82"/><path class="cls-6" d="M146.29,7.14h-2.45A.82.82,0,0,0,143,8v.72a7.57,7.57,0,0,0-4.59-1.54A7.65,7.65,0,1,0,143,20.91v3.58a3.72,3.72,0,0,1-7.38.66.8.8,0,0,0-.8-.66h-2.47a.81.81,0,0,0-.81.9,7.8,7.8,0,0,0,15.54-.9V8A.82.82,0,0,0,146.29,7.14Zm-7.85,11.22A3.57,3.57,0,1,1,142,14.79,3.58,3.58,0,0,1,138.44,18.36Z"/><path class="cls-2" d="M101.2,0H89.79A.82.82,0,0,0,89,.82V21.63a.81.81,0,0,0,.81.81h2.45a.82.82,0,0,0,.82-.81V4.08h12.24A4.08,4.08,0,0,0,101.2,0Z"/><circle class="cls-5" cx="84.86" cy="20.33" r="2.04"/><path class="cls-5" d="M110.08.5a.82.82,0,0,0-1.41,0l-1.31,2.26A.82.82,0,0,0,108.07,4h2.61a.82.82,0,0,0,.71-1.23Z"/><path class="cls-5" d="M71.64,4.06a9.19,9.19,0,1,0,7.69,14.12.82.82,0,0,0-.69-1.26H75.43a.83.83,0,0,0-.54.21,5.05,5.05,0,0,1-3.32,1.23,5.11,5.11,0,0,1-4.84-3.48H79.9a.82.82,0,0,0,.82-.74c0-.33,0-.68,0-1A9.22,9.22,0,0,0,71.64,4.06Zm-4.91,7.56a5.11,5.11,0,0,1,9.68,0Z"/><path class="cls-7" d="M81.51,78.37a2,2,0,0,1-2.27,2.27H74v7.13C74,89.88,72.66,91,70.23,91s-3.76-1.1-3.76-3.21V80.64H61.21a2.27,2.27,0,1,1,0-4.53h5.26V73.18H63.81a3.24,3.24,0,0,1-3.59-3.6V56.31a3.24,3.24,0,0,1,3.59-3.6h2.66V50H61.32a2.27,2.27,0,0,1,0-4.54h5.15V41.82c0-2.1,1.32-3.21,3.76-3.21S74,39.72,74,41.82v3.59h4.2a2.27,2.27,0,0,1,0,4.54H74v2.76h2.76a3.24,3.24,0,0,1,3.6,3.6V69.58a3.25,3.25,0,0,1-3.6,3.6H74v2.93h5.25A2,2,0,0,1,81.51,78.37Z"/><path class="cls-8" d="M67.57,57.14H66.19a.64.64,0,0,0-.67.66v3.1h2Z"/><path class="cls-8" d="M67.57,64.88h-2v3.21a.64.64,0,0,0,.67.66h1.38Z"/><path class="cls-8" d="M73.1,60.9h2.05V57.8a.64.64,0,0,0-.67-.66H73.1Z"/><path class="cls-8" d="M74.48,68.75a.64.64,0,0,0,.67-.66V64.88H73.1v3.87Z"/><path class="cls-7" d="M83.44,77.05h-.61a2.27,2.27,0,0,1,0-4.54H95.5V70.58c-3.6.49-7.52.88-11.28,1.1-1.88.11-3-.5-3.27-2.38s.78-3.09,2.88-3,4.31.06,6.53,0v-2H85.21a3.24,3.24,0,0,1-3.59-3.6V52.33a3.24,3.24,0,0,1,3.59-3.6H90v-1.6H83a2.16,2.16,0,1,1,0-4.32H90V41.76c0-2.21,1.39-3.37,3.93-3.37s3.93,1.16,3.93,3.37v1.05h7.41a2.16,2.16,0,0,1,0,4.32H97.88v1.6h4.86a3.24,3.24,0,0,1,3.6,3.6v8.29c0,1.94-.89,3.15-2.55,3.48a21.69,21.69,0,0,1,4.15,2.55,2.51,2.51,0,0,1,.33,3.93,2.35,2.35,0,0,1-3.87-.17c-.38-.5-.77-.94-1.16-1.38-.16,0-.33,0-.5.11a3.57,3.57,0,0,1,.17,1.1v2.27h3.54a2.27,2.27,0,1,1,0,4.54h-3.54v7.79c0,5.7-5.53,7.86-12.33,4.65A2.09,2.09,0,0,1,89.25,87c.22-.94,1-1.38,2.27-1.27,3.15.28,4-.39,4-2.6V77.05H86.15"/><path class="cls-8" d="M87.92,54.7h2.44V52.82H88.59a.65.65,0,0,0-.67.67Z"/><path class="cls-8" d="M90.36,60.12V58.24H87.92v1.22a.64.64,0,0,0,.67.66Z"/><path class="cls-8" d="M97.55,54.7H100V53.49a.64.64,0,0,0-.66-.67H97.55Z"/><path class="cls-8" d="M97.55,60.12h1.82a.63.63,0,0,0,.66-.66V58.24H97.55Z"/><path class="cls-8" d="M97.88,66.15c.83-.05,1.66-.05,2.43-.11a1.46,1.46,0,0,1-.28-1.82H97.88Z"/><path class="cls-7" d="M163.91,86.5c-1.16,2.38-3.82,2.82-6.14,1.77a41.81,41.81,0,0,1-14.05-9.79v8.3c0,2.93-1.6,4.37-4.53,4.37s-4.54-1.44-4.54-4.37V79.2c-4.81,4.43-11.5,7.52-17.36,9.29-1.38.39-2.33.17-2.88-1a2,2,0,0,1,1.22-2.76c6-2.77,10-4.87,14.05-8.91H118.34a2.49,2.49,0,0,1,0-5h16.31v-.5A3.32,3.32,0,0,1,136.53,67h-2.1a3.47,3.47,0,0,1-2.87-1.16c-.17.94-.83,1.55-2.11,1.77-1.88.33-2.93-.5-3.09-2.55a28.71,28.71,0,0,1-7.52,2.55c-2.27.44-3.77-.39-4.1-2.6s.78-3.6,3.21-3.65h.5a52.1,52.1,0,0,0,3-5.53c-1,.33-2.16.55-3.15.77-2.1.45-3.6-.33-3.76-2.65a2.48,2.48,0,0,1,2.54-3,81.65,81.65,0,0,0,1.72-8.19c.44-2.54,2-3.32,4.2-2.82s2.76,2.27,1.82,4.65a35.11,35.11,0,0,1-3.26,6.25c.72,0,1.38-.06,2.1-.06.39-.94.72-1.88,1-2.76A3.07,3.07,0,0,1,129.12,46a2.77,2.77,0,0,1,1.72,1.6c.16-2.1,1.44-3.2,3.59-3.2h1.38l.34-3.16c.27-2.37,1.71-3,4-2.82s3.26,1.77,2.65,3.6a9.57,9.57,0,0,1-1.27,2.38h1.94A3.23,3.23,0,0,1,147,48v3.1a2.51,2.51,0,0,1,1-.33,82.9,82.9,0,0,0,1.6-8.46c.39-2.55,2.05-3.27,4.15-2.82,2.27.49,2.82,2.1,2,4.42a38.85,38.85,0,0,1-3.37,6.69c.82,0,1.6,0,2.37-.11l1-2.43c.88-2.33,2.6-3,4.64-2.1s2.49,2.82,1.33,4.92A45.09,45.09,0,0,1,158,56.47h.06a1.81,1.81,0,0,1,2.21,1A23.56,23.56,0,0,1,163,63.61c.5,1.71,0,3.15-1.88,3.59S158,67,157.71,64.88l-.05-.39a31.72,31.72,0,0,1-7.52,2.6c-1.83.33-3.1-.16-3.65-1.49a3.45,3.45,0,0,1-3,1.38h-1.61a3.31,3.31,0,0,1,1.88,3.32v.5h16.65a2.49,2.49,0,0,1,0,5h-12.5a60.13,60.13,0,0,0,13.6,5C164.24,81.53,165.18,83.9,163.91,86.5Z"/><path class="cls-8" d="M123.2,61.12c.89-.06,1.77-.11,2.66-.22l-.22-1.72a2.17,2.17,0,0,1,0-.88C124.81,59.29,124,60.29,123.2,61.12Z"/><path class="cls-8" d="M130.84,61.73V50l-.34.83a38,38,0,0,1-4,6.3c.11,0,.28,0,.39-.11a1.83,1.83,0,0,1,2.27,1.11A20.51,20.51,0,0,1,130.84,61.73Z"/><path class="cls-8" d="M137.47,48.73a.64.64,0,0,0-.66.66v3.88h4.48V49.39a.64.64,0,0,0-.66-.66Z"/><path class="cls-8" d="M136.81,62a.64.64,0,0,0,.66.67h3.16a.64.64,0,0,0,.66-.67V57.58h-4.48Z"/><path class="cls-8" d="M147,55.92v5.64A3.34,3.34,0,0,1,149.2,61h.33c1.05-1.77,2-3.65,3-5.64a29.63,29.63,0,0,1-2.93.88A2.86,2.86,0,0,1,147,55.92Z"/><path class="cls-8" d="M156.72,58c-.83,1-1.72,2-2.6,2.93,1-.05,2-.11,3-.22l-.34-2.16A2.24,2.24,0,0,1,156.72,58Z"/><path class="cls-7" d="M91.09,83.08a2,2,0,0,1-3.24-.29,33.81,33.81,0,0,0-3.39-4,1.26,1.26,0,0,1-.1-1.77,1.31,1.31,0,0,1,1.77-.39,23.73,23.73,0,0,1,4.72,3.19C92,80.87,92.12,82,91.09,83.08Z"/><path class="cls-7" d="M22.56,78.37a2,2,0,0,1-2.26,2.27H15v7.13C15,89.88,13.72,91,11.28,91s-3.76-1.1-3.76-3.21V80.64H2.27a2.27,2.27,0,1,1,0-4.53H7.52V73.18H4.87a3.24,3.24,0,0,1-3.6-3.6V56.31a3.24,3.24,0,0,1,3.6-3.6H7.52V50H2.38a2.27,2.27,0,1,1,0-4.54H7.52V41.82c0-2.1,1.33-3.21,3.76-3.21S15,39.72,15,41.82v3.59h4.21a2.27,2.27,0,0,1,0,4.54H15v2.76h2.77a3.24,3.24,0,0,1,3.59,3.6V69.58a3.24,3.24,0,0,1-3.59,3.6H15v2.93H20.3A2,2,0,0,1,22.56,78.37Z"/><path class="cls-8" d="M8.63,57.14H7.25a.64.64,0,0,0-.67.66v3.1H8.63Z"/><path class="cls-8" d="M8.63,64.88H6.58v3.21a.64.64,0,0,0,.67.66H8.63Z"/><path class="cls-8" d="M14.16,60.9h2V57.8a.63.63,0,0,0-.66-.66H14.16Z"/><path class="cls-8" d="M15.54,68.75a.64.64,0,0,0,.66-.66V64.88h-2v3.87Z"/><path class="cls-7" d="M24.5,77.05h-.61a2.27,2.27,0,0,1,0-4.54H36.56V70.58c-3.6.49-7.53.88-11.29,1.1-1.88.11-3-.5-3.26-2.38s.78-3.09,2.88-3,4.31.06,6.52,0v-2H26.27a3.25,3.25,0,0,1-3.6-3.6V52.33a3.24,3.24,0,0,1,3.6-3.6h4.81v-1.6H24a2.16,2.16,0,1,1,0-4.32h7.08V41.76c0-2.21,1.38-3.37,3.93-3.37s3.92,1.16,3.92,3.37v1.05h7.41a2.16,2.16,0,0,1,0,4.32H38.93v1.6H43.8a3.24,3.24,0,0,1,3.6,3.6v8.29c0,1.94-.89,3.15-2.55,3.48A22,22,0,0,1,49,66.65a2.51,2.51,0,0,1,.33,3.93,2.35,2.35,0,0,1-3.87-.17c-.39-.5-.77-.94-1.16-1.38-.17,0-.33,0-.5.11a3.57,3.57,0,0,1,.17,1.1v2.27h3.54a2.27,2.27,0,0,1,0,4.54H44v7.79c0,5.7-5.53,7.86-12.34,4.65A2.09,2.09,0,0,1,30.31,87c.22-.94,1-1.38,2.26-1.27,3.16.28,4-.39,4-2.6V77.05H27.21"/><path class="cls-8" d="M29,54.7h2.43V52.82H29.64a.64.64,0,0,0-.66.67Z"/><path class="cls-8" d="M31.41,60.12V58.24H29v1.22a.64.64,0,0,0,.66.66Z"/><path class="cls-8" d="M38.6,54.7h2.49V53.49a.64.64,0,0,0-.66-.67H38.6Z"/><path class="cls-8" d="M38.6,60.12h1.83a.64.64,0,0,0,.66-.66V58.24H38.6Z"/><path class="cls-8" d="M38.93,66.15c.83-.05,1.66-.05,2.44-.11a1.45,1.45,0,0,1-.28-1.82H38.93Z"/><path class="cls-7" d="M32.15,83.08a2,2,0,0,1-3.24-.29,33.81,33.81,0,0,0-3.39-4,1.26,1.26,0,0,1-.1-1.77,1.31,1.31,0,0,1,1.77-.39,23.38,23.38,0,0,1,4.71,3.19C33.08,80.87,33.18,82,32.15,83.08Z"/></g></g></svg>