<svg xmlns="http://www.w3.org/2000/svg" viewBox="0 0 183.81 193.75"><defs><style>.cls-1{fill:#87d4c7;}.cls-2{fill:#5fc7b9;}.cls-2,.cls-3,.cls-4,.cls-5{fill-rule:evenodd;}.cls-3{fill:#76482e;}.cls-4{fill:#fff;}.cls-5{fill:#482d1d;}.cls-6{fill:#3cbaad;}</style></defs><g id="圖層_2" data-name="圖層 2"><g id="圖層_1-2" data-name="圖層 1"><circle class="cls-1" cx="65.85" cy="65.85" r="65.85" transform="translate(-13.32 114.89) rotate(-76.78)"/><path class="cls-2" d="M26.5,117.58A23.25,23.25,0,1,1,3.26,140.83,23.25,23.25,0,0,1,26.5,117.58Z"/><polygon class="cls-3" points="65.91 182 54.29 182 59.34 63.76 65.91 182"/><polygon class="cls-3" points="60.19 108.95 83.13 86.53 59.93 115.78 60.19 108.95"/><polygon class="cls-3" points="60.06 82.39 71.97 70.75 59.93 85.93 60.06 82.39"/><polygon class="cls-3" points="59.72 92.35 41.26 74.3 59.93 97.84 59.72 92.35"/><polygon class="cls-3" points="59.64 162.59 33.93 137.45 59.93 170.23 59.64 162.59"/><polygon class="cls-3" points="42.87 148.77 27.68 150.97 45.54 150.65 42.87 148.77"/><polygon class="cls-3" points="40.71 145.43 40.3 136.07 42.14 146.81 40.71 145.43"/><path class="cls-4" d="M24.06,62.24S34.67,64,37.18,72.65C28.54,74,25.36,66.22,24.06,62.24Z"/><path class="cls-4" d="M22.21,81.43s7-8.15,15.72-5.75C34.55,83.75,26.27,82.4,22.21,81.43Z"/><path class="cls-4" d="M25.38,126.94s4.29,6,1.29,11.37C21.85,134.77,24.08,129.48,25.38,126.94Z"/><path class="cls-4" d="M15.19,135.29s7.33-.53,10.37,4.85C20,142.4,16.68,137.73,15.19,135.29Z"/><path class="cls-2" d="M120.17,70.24a36.69,36.69,0,1,0,36.69,36.69A36.69,36.69,0,0,0,120.17,70.24Z"/><polygon class="cls-5" points="113.24 193.75 122.61 193.75 118.54 98.37 113.24 193.75"/><polygon class="cls-5" points="117.86 134.83 99.35 116.73 118.06 140.32 117.86 134.83"/><polygon class="cls-5" points="117.96 113.39 108.35 104.01 118.06 116.25 117.96 113.39"/><polygon class="cls-5" points="118.23 121.43 133.13 106.87 118.06 125.85 118.23 121.43"/><path class="cls-4" d="M147,97.14s-8.56,1.39-10.59,8.4C143.39,106.62,146,100.35,147,97.14Z"/><path class="cls-4" d="M148.5,112.62s-5.66-6.57-12.7-4.64C138.53,114.49,145.22,113.41,148.5,112.62Z"/><path class="cls-4" d="M154.15,156.07s-5.91-.43-8.36,3.91C150.26,161.8,153,158,154.15,156.07Z"/><circle class="cls-6" cx="155.05" cy="144.32" r="28.77"/><polygon class="cls-5" points="118.3 178.09 139.03 157.81 118.06 184.25 118.3 178.09"/><polygon class="cls-5" points="131.83 166.94 144.08 168.72 129.68 168.46 131.83 166.94"/><polygon class="cls-5" points="133.57 164.25 133.9 156.7 132.41 165.36 133.57 164.25"/><path class="cls-4" d="M142.45,148.44s-2.84,4-.86,7.55C144.79,153.64,143.31,150.13,142.45,148.44Z"/><path class="cls-4" d="M161.61,141.89s-10.54,1.71-13,10.35C157.16,153.56,160.32,145.84,161.61,141.89Z"/><path class="cls-4" d="M163.45,161s-7-8.09-15.62-5.7C151.18,163.26,159.41,161.92,163.45,161Z"/></g></g></svg>