<svg xmlns="http://www.w3.org/2000/svg" xmlns:xlink="http://www.w3.org/1999/xlink" viewBox="0 0 397.89 433.76"><defs><style>.cls-1{fill:#d99e09;}.cls-2{fill:url(#鍊踑臇蜸馯鳺艜_14);}.cls-3{fill:#ffc517;}.cls-4{fill:#fff;}.cls-5{fill:url(#鍊踑臇蜸馯鳺艜_86);}.cls-6{fill:#f9dcdc;}.cls-7{fill:#fcc;}.cls-8{fill:#fffde6;}.cls-9{fill:url(#鍊踑臇蜸馯鳺艜_7);}.cls-10{fill:#fcf9de;opacity:0.62;}.cls-11{fill:#f90;}</style><linearGradient id="鍊踑臇蜸馯鳺艜_14" x1="13.03" y1="198.95" x2="384.85" y2="198.95" gradientUnits="userSpaceOnUse"><stop offset="0" stop-color="#76a8f5"/><stop offset="1" stop-color="#023b74"/></linearGradient><linearGradient id="鍊踑臇蜸馯鳺艜_86" x1="24.32" y1="198.95" x2="373.56" y2="198.95" gradientUnits="userSpaceOnUse"><stop offset="0" stop-color="#ffc546"/><stop offset="1" stop-color="#f9aa01"/></linearGradient><linearGradient id="鍊踑臇蜸馯鳺艜_7" x1="186.39" y1="198.49" x2="213.76" y2="198.49" gradientTransform="translate(372.64 -24.33) rotate(82.98)" gradientUnits="userSpaceOnUse"><stop offset="0" stop-color="#4771b3"/><stop offset="1" stop-color="#37578c"/></linearGradient></defs><g id="圖層_2" data-name="圖層 2"><g id="圖層_1-2" data-name="圖層 1"><rect class="cls-1" x="176.11" y="392.71" width="45.67" height="27.37"/><rect class="cls-1" x="154.31" y="413.96" width="89.27" height="19.8"/><circle class="cls-2" cx="198.94" cy="198.95" r="185.91"/><path class="cls-3" d="M397.89,199c0,109.87-89.07,198.94-198.95,198.94A198,198,0,0,1,76.05,355.41c-3.11-2.45-6.15-5-9.12-7.62a200.14,200.14,0,0,1-26-28A198.1,198.1,0,0,1,0,199C0,89.07,89.07,0,198.94,0a197.92,197.92,0,0,1,97.12,25.28q2.61,1.47,5.18,3A199,199,0,0,1,397.89,199Z"/><circle class="cls-4" cx="202.32" cy="199.89" r="171.35"/><path class="cls-5" d="M198.94,373.57c-96.28,0-174.62-78.34-174.62-174.62S102.66,24.33,198.94,24.33,373.56,102.66,373.56,199,295.23,373.57,198.94,373.57Zm0-340.88C107.27,32.69,32.69,107.27,32.69,199S107.27,365.2,198.94,365.2,365.2,290.62,365.2,199,290.61,32.69,198.94,32.69Z"/><path class="cls-4" d="M201.85,28.55v168.9L263.14,41A169.67,169.67,0,0,0,201.85,28.55Z"/><path class="cls-6" d="M201.28,197.6V28.54c-.78,0-1.55,0-2.34,0a169.82,169.82,0,0,0-65.78,13.17Z"/><path class="cls-7" d="M202.32,197.79,320.56,79.56a170.8,170.8,0,0,0-56.89-38.32Z"/><path class="cls-6" d="M269.14,354.3l-67.29-154V369.35A169.91,169.91,0,0,0,269.14,354.3Z"/><path class="cls-4" d="M321,80,202.82,198.09,355.46,131.4A170.75,170.75,0,0,0,321,80Z"/><path class="cls-7" d="M321,317.93a170.47,170.47,0,0,0,37-57.42L202.72,199.7Z"/><path class="cls-6" d="M202.92,198.66H369.38a169.78,169.78,0,0,0-13.7-66.74Z"/><path class="cls-4" d="M203.06,199.23,358.11,260a170.15,170.15,0,0,0,11.27-60.76Z"/><path class="cls-7" d="M200.81,200.1,80,321a170.56,170.56,0,0,0,58.8,37.48Z"/><path class="cls-6" d="M200.22,199.23H28.51A169.86,169.86,0,0,0,43,267.9Z"/><path class="cls-4" d="M201.28,200.44l-62,158.2a170.05,170.05,0,0,0,59.65,10.74c.79,0,1.56,0,2.34,0Z"/><path class="cls-4" d="M43.27,268.42a170.89,170.89,0,0,0,36.28,52.14L200.31,199.8Z"/><path class="cls-4" d="M202.42,200.2l67.23,153.86a170.89,170.89,0,0,0,50.91-35.72Z"/><path class="cls-7" d="M200.41,198.19,79.55,77.33A170.77,170.77,0,0,0,40.68,135.6Z"/><path class="cls-4" d="M200.07,198.66,40.47,136.12a169.88,169.88,0,0,0-12,62.54Z"/><path class="cls-4" d="M132.64,41.89A170.56,170.56,0,0,0,80,76.94L200.71,197.69Z"/><circle class="cls-8" cx="96.47" cy="354.06" r="7.9"/><path class="cls-8" d="M52.52,94.81a7.9,7.9,0,1,0-7.9,7.9A7.9,7.9,0,0,0,52.52,94.81Z"/><path class="cls-8" d="M23.75,164.73a7.9,7.9,0,1,0-7.9,7.9A7.89,7.89,0,0,0,23.75,164.73Z"/><path class="cls-8" d="M23.75,237.51a7.9,7.9,0,1,0-7.9,7.9A7.89,7.89,0,0,0,23.75,237.51Z"/><circle class="cls-8" cx="43.27" cy="300.32" r="7.9" transform="translate(-259.59 318.67) rotate(-85.27)"/><circle class="cls-8" cx="167.22" cy="381.54" r="7.9"/><path class="cls-8" d="M262,377a7.9,7.9,0,1,0-7.9,7.9A7.9,7.9,0,0,0,262,377Z"/><path class="cls-8" d="M320.56,345.6a7.9,7.9,0,1,0-7.9,7.9A7.9,7.9,0,0,0,320.56,345.6Z"/><circle class="cls-8" cx="355.46" cy="300.32" r="7.9" transform="translate(30.7 633.59) rotate(-85.93)"/><path class="cls-8" d="M389.23,154.45a7.9,7.9,0,1,0-7.9,7.9A7.9,7.9,0,0,0,389.23,154.45Z"/><path class="cls-8" d="M390.37,232.48a7.9,7.9,0,1,0-7.9,7.9A7.9,7.9,0,0,0,390.37,232.48Z"/><circle class="cls-8" cx="351.01" cy="90.12" r="7.9" transform="translate(39.09 274.59) rotate(-45)"/><circle class="cls-8" cx="98.31" cy="41.24" r="7.9" transform="translate(-7.73 30.26) rotate(-16.85)"/><circle class="cls-8" cx="164.34" cy="15.29" r="7.9" transform="translate(87.32 161.27) rotate(-67.5)"/><path class="cls-8" d="M243.2,17a7.9,7.9,0,1,0-7.9,7.9A7.9,7.9,0,0,0,243.2,17Z"/><circle class="cls-8" cx="302.28" cy="41.89" r="7.9" transform="translate(-2.81 48.96) rotate(-9.22)"/><circle class="cls-9" cx="200.07" cy="198.49" r="13.69" transform="translate(-21.38 372.82) rotate(-82.98)"/><circle class="cls-10" cx="199.97" cy="198.75" r="170.24"/><polygon class="cls-11" points="187.06 7.7 187.54 39.73 201.79 59.65 214.35 37.41 213.9 7.3 187.06 7.7"/></g></g></svg>